<?xml version="1.0" encoding="UTF-8" standalone="no"?>
<!DOCTYPE svg PUBLIC "-//W3C//DTD SVG 1.1//EN"
 "http://www.w3.org/Graphics/SVG/1.1/DTD/svg11.dtd">
<!-- Generated by graphviz version 9.0.0 (20230911.1827)
 -->
<!-- Pages: 1 -->
<svg width="2838pt" height="476pt"
 viewBox="0.00 0.00 2838.13 476.00" xmlns="http://www.w3.org/2000/svg" xmlns:xlink="http://www.w3.org/1999/xlink">
<g id="graph0" class="graph" transform="scale(1 1) rotate(0) translate(4 472)">
<polygon fill="white" stroke="none" points="-4,4 -4,-472 2834.13,-472 2834.13,4 -4,4"/>
<!-- [root] aws_instance.todo (expand) -->
<g id="node1" class="node">
<title>[root] aws_instance.todo (expand)</title>
<polygon fill="none" stroke="black" points="1510.49,-252 1394.74,-252 1394.74,-216 1510.49,-216 1510.49,-252"/>
<text text-anchor="middle" x="1452.61" y="-228.95" font-family="Times,serif" font-size="14.00">aws_instance.todo</text>
</g>
<!-- [root] aws_key_pair.deployer (expand) -->
<g id="node2" class="node">
<title>[root] aws_key_pair.deployer (expand)</title>
<polygon fill="none" stroke="black" points="1020.24,-180 878.99,-180 878.99,-144 1020.24,-144 1020.24,-180"/>
<text text-anchor="middle" x="949.61" y="-156.95" font-family="Times,serif" font-size="14.00">aws_key_pair.deployer</text>
</g>
<!-- [root] aws_instance.todo (expand)&#45;&gt;[root] aws_key_pair.deployer (expand) -->
<g id="edge1" class="edge">
<title>[root] aws_instance.todo (expand)&#45;&gt;[root] aws_key_pair.deployer (expand)</title>
<path fill="none" stroke="black" d="M1394.41,-222.3C1381.34,-220.06 1367.52,-217.83 1354.61,-216 1214.24,-196.07 1174.99,-202.78 1031.61,-180.22"/>
<polygon fill="black" stroke="black" points="1032.56,-176.83 1022.14,-178.71 1031.46,-183.75 1032.56,-176.83"/>
</g>
<!-- [root] aws_security_group.instances (expand) -->
<g id="node12" class="node">
<title>[root] aws_security_group.instances (expand)</title>
<polygon fill="none" stroke="black" points="1762.61,-180 1584.61,-180 1584.61,-144 1762.61,-144 1762.61,-180"/>
<text text-anchor="middle" x="1673.61" y="-156.95" font-family="Times,serif" font-size="14.00">aws_security_group.instances</text>
</g>
<!-- [root] aws_instance.todo (expand)&#45;&gt;[root] aws_security_group.instances (expand) -->
<g id="edge2" class="edge">
<title>[root] aws_instance.todo (expand)&#45;&gt;[root] aws_security_group.instances (expand)</title>
<path fill="none" stroke="black" d="M1507.81,-215.52C1538.25,-205.88 1576.23,-193.84 1608.16,-183.73"/>
<polygon fill="black" stroke="black" points="1608.81,-187.2 1617.29,-180.84 1606.7,-180.52 1608.81,-187.2"/>
</g>
<!-- [root] var.ssh_private_key_path -->
<g id="node23" class="node">
<title>[root] var.ssh_private_key_path</title>
<polygon fill="none" stroke="black" points="1560.61,-180 1412.61,-180 1412.61,-144 1566.61,-144 1566.61,-174 1560.61,-180"/>
<polyline fill="none" stroke="black" points="1560.61,-180 1560.61,-174"/>
<polyline fill="none" stroke="black" points="1566.61,-174 1560.61,-174"/>
<text text-anchor="middle" x="1489.61" y="-156.95" font-family="Times,serif" font-size="14.00">var.ssh_private_key_path</text>
</g>
<!-- [root] aws_instance.todo (expand)&#45;&gt;[root] var.ssh_private_key_path -->
<g id="edge3" class="edge">
<title>[root] aws_instance.todo (expand)&#45;&gt;[root] var.ssh_private_key_path</title>
<path fill="none" stroke="black" d="M1461.76,-215.7C1465.83,-207.98 1470.73,-198.71 1475.28,-190.11"/>
<polygon fill="black" stroke="black" points="1478.28,-191.92 1479.86,-181.44 1472.09,-188.65 1478.28,-191.92"/>
</g>
<!-- [root] provider[&quot;registry.terraform.io/hashicorp/aws&quot;] -->
<g id="node17" class="node">
<title>[root] provider[&quot;registry.terraform.io/hashicorp/aws&quot;]</title>
<polygon fill="none" stroke="black" points="1153.61,-108 889.18,-90 1153.61,-72 1418.04,-90 1153.61,-108"/>
<text text-anchor="middle" x="1153.61" y="-84.95" font-family="Times,serif" font-size="14.00">provider[&quot;registry.terraform.io/hashicorp/aws&quot;]</text>
</g>
<!-- [root] aws_key_pair.deployer (expand)&#45;&gt;[root] provider[&quot;registry.terraform.io/hashicorp/aws&quot;] -->
<g id="edge4" class="edge">
<title>[root] aws_key_pair.deployer (expand)&#45;&gt;[root] provider[&quot;registry.terraform.io/hashicorp/aws&quot;]</title>
<path fill="none" stroke="black" d="M1000.56,-143.52C1031.07,-133.05 1069.79,-119.76 1100.65,-109.17"/>
<polygon fill="black" stroke="black" points="1101.46,-112.6 1109.78,-106.04 1099.18,-105.98 1101.46,-112.6"/>
</g>
<!-- [root] var.ssh_public_key_path -->
<g id="node24" class="node">
<title>[root] var.ssh_public_key_path</title>
<polygon fill="none" stroke="black" points="864.74,-108 720.49,-108 720.49,-72 870.74,-72 870.74,-102 864.74,-108"/>
<polyline fill="none" stroke="black" points="864.74,-108 864.74,-102"/>
<polyline fill="none" stroke="black" points="870.74,-102 864.74,-102"/>
<text text-anchor="middle" x="795.61" y="-84.95" font-family="Times,serif" font-size="14.00">var.ssh_public_key_path</text>
</g>
<!-- [root] aws_key_pair.deployer (expand)&#45;&gt;[root] var.ssh_public_key_path -->
<g id="edge5" class="edge">
<title>[root] aws_key_pair.deployer (expand)&#45;&gt;[root] var.ssh_public_key_path</title>
<path fill="none" stroke="black" d="M911.15,-143.52C890.86,-134.29 865.76,-122.89 844.15,-113.06"/>
<polygon fill="black" stroke="black" points="845.78,-109.96 835.23,-109.01 842.88,-116.33 845.78,-109.96"/>
</g>
<!-- [root] aws_lb.todo (expand) -->
<g id="node3" class="node">
<title>[root] aws_lb.todo (expand)</title>
<polygon fill="none" stroke="black" points="1345.61,-252 1263.61,-252 1263.61,-216 1345.61,-216 1345.61,-252"/>
<text text-anchor="middle" x="1304.61" y="-228.95" font-family="Times,serif" font-size="14.00">aws_lb.todo</text>
</g>
<!-- [root] aws_s3_bucket.lb_logs (expand) -->
<g id="node7" class="node">
<title>[root] aws_s3_bucket.lb_logs (expand)</title>
<polygon fill="none" stroke="black" points="860.61,-180 718.61,-180 718.61,-144 860.61,-144 860.61,-180"/>
<text text-anchor="middle" x="789.61" y="-156.95" font-family="Times,serif" font-size="14.00">aws_s3_bucket.lb_logs</text>
</g>
<!-- [root] aws_lb.todo (expand)&#45;&gt;[root] aws_s3_bucket.lb_logs (expand) -->
<g id="edge6" class="edge">
<title>[root] aws_lb.todo (expand)&#45;&gt;[root] aws_s3_bucket.lb_logs (expand)</title>
<path fill="none" stroke="black" d="M1263.35,-229.2C1187.78,-221.97 1021.86,-204.87 872.28,-180.37"/>
<polygon fill="black" stroke="black" points="873.01,-176.94 862.57,-178.76 871.87,-183.85 873.01,-176.94"/>
</g>
<!-- [root] aws_security_group.public_lb (expand) -->
<g id="node13" class="node">
<title>[root] aws_security_group.public_lb (expand)</title>
<polygon fill="none" stroke="black" points="1394.36,-180 1214.86,-180 1214.86,-144 1394.36,-144 1394.36,-180"/>
<text text-anchor="middle" x="1304.61" y="-156.95" font-family="Times,serif" font-size="14.00">aws_security_group.public_lb</text>
</g>
<!-- [root] aws_lb.todo (expand)&#45;&gt;[root] aws_security_group.public_lb (expand) -->
<g id="edge7" class="edge">
<title>[root] aws_lb.todo (expand)&#45;&gt;[root] aws_security_group.public_lb (expand)</title>
<path fill="none" stroke="black" d="M1304.61,-215.7C1304.61,-208.41 1304.61,-199.73 1304.61,-191.54"/>
<polygon fill="black" stroke="black" points="1308.11,-191.62 1304.61,-181.62 1301.11,-191.62 1308.11,-191.62"/>
</g>
<!-- [root] aws_lb_listener.todo (expand) -->
<g id="node4" class="node">
<title>[root] aws_lb_listener.todo (expand)</title>
<polygon fill="none" stroke="black" points="1067.49,-324 939.74,-324 939.74,-288 1067.49,-288 1067.49,-324"/>
<text text-anchor="middle" x="1003.61" y="-300.95" font-family="Times,serif" font-size="14.00">aws_lb_listener.todo</text>
</g>
<!-- [root] aws_lb_listener.todo (expand)&#45;&gt;[root] aws_lb.todo (expand) -->
<g id="edge8" class="edge">
<title>[root] aws_lb_listener.todo (expand)&#45;&gt;[root] aws_lb.todo (expand)</title>
<path fill="none" stroke="black" d="M1067.7,-290.07C1070.71,-289.37 1073.7,-288.68 1076.61,-288 1136.95,-273.96 1206.27,-257.85 1252.48,-247.11"/>
<polygon fill="black" stroke="black" points="1253,-250.58 1261.95,-244.91 1251.41,-243.77 1253,-250.58"/>
</g>
<!-- [root] aws_lb_target_group.todo (expand) -->
<g id="node5" class="node">
<title>[root] aws_lb_target_group.todo (expand)</title>
<polygon fill="none" stroke="black" points="1196.49,-180 1038.74,-180 1038.74,-144 1196.49,-144 1196.49,-180"/>
<text text-anchor="middle" x="1117.61" y="-156.95" font-family="Times,serif" font-size="14.00">aws_lb_target_group.todo</text>
</g>
<!-- [root] aws_lb_listener.todo (expand)&#45;&gt;[root] aws_lb_target_group.todo (expand) -->
<g id="edge9" class="edge">
<title>[root] aws_lb_listener.todo (expand)&#45;&gt;[root] aws_lb_target_group.todo (expand)</title>
<path fill="none" stroke="black" d="M1042,-287.58C1057.68,-278.83 1074.84,-266.89 1086.61,-252 1100.49,-234.44 1108.39,-210.23 1112.74,-191.49"/>
<polygon fill="black" stroke="black" points="1116.13,-192.35 1114.75,-181.85 1109.28,-190.92 1116.13,-192.35"/>
</g>
<!-- [root] data.terraform_remote_state.training_account (expand) -->
<g id="node15" class="node">
<title>[root] data.terraform_remote_state.training_account (expand)</title>
<polygon fill="none" stroke="black" points="1771.11,-108 1506.11,-108 1506.11,-72 1771.11,-72 1771.11,-108"/>
<text text-anchor="middle" x="1638.61" y="-84.95" font-family="Times,serif" font-size="14.00">data.terraform_remote_state.training_account</text>
</g>
<!-- [root] aws_lb_target_group.todo (expand)&#45;&gt;[root] data.terraform_remote_state.training_account (expand) -->
<g id="edge10" class="edge">
<title>[root] aws_lb_target_group.todo (expand)&#45;&gt;[root] data.terraform_remote_state.training_account (expand)</title>
<path fill="none" stroke="black" d="M1196.72,-145.45C1199.72,-144.95 1202.69,-144.46 1205.61,-144 1301.55,-128.88 1410.03,-115.61 1494.41,-106.13"/>
<polygon fill="black" stroke="black" points="1494.57,-109.63 1504.12,-105.04 1493.79,-102.67 1494.57,-109.63"/>
</g>
<!-- [root] aws_lb_target_group.todo (expand)&#45;&gt;[root] provider[&quot;registry.terraform.io/hashicorp/aws&quot;] -->
<g id="edge11" class="edge">
<title>[root] aws_lb_target_group.todo (expand)&#45;&gt;[root] provider[&quot;registry.terraform.io/hashicorp/aws&quot;]</title>
<path fill="none" stroke="black" d="M1126.51,-143.7C1130.54,-135.87 1135.39,-126.44 1139.86,-117.73"/>
<polygon fill="black" stroke="black" points="1142.91,-119.46 1144.37,-108.97 1136.68,-116.26 1142.91,-119.46"/>
</g>
<!-- [root] aws_lb_target_group_attachment.todo_instance (expand) -->
<g id="node6" class="node">
<title>[root] aws_lb_target_group_attachment.todo_instance (expand)</title>
<polygon fill="none" stroke="black" points="1361.36,-324 1085.86,-324 1085.86,-288 1361.36,-288 1361.36,-324"/>
<text text-anchor="middle" x="1223.61" y="-300.95" font-family="Times,serif" font-size="14.00">aws_lb_target_group_attachment.todo_instance</text>
</g>
<!-- [root] aws_lb_target_group_attachment.todo_instance (expand)&#45;&gt;[root] aws_instance.todo (expand) -->
<g id="edge12" class="edge">
<title>[root] aws_lb_target_group_attachment.todo_instance (expand)&#45;&gt;[root] aws_instance.todo (expand)</title>
<path fill="none" stroke="black" d="M1280.81,-287.52C1312.35,-277.88 1351.7,-265.84 1384.79,-255.73"/>
<polygon fill="black" stroke="black" points="1385.76,-259.09 1394.3,-252.82 1383.71,-252.4 1385.76,-259.09"/>
</g>
<!-- [root] aws_lb_target_group_attachment.todo_instance (expand)&#45;&gt;[root] aws_lb_target_group.todo (expand) -->
<g id="edge13" class="edge">
<title>[root] aws_lb_target_group_attachment.todo_instance (expand)&#45;&gt;[root] aws_lb_target_group.todo (expand)</title>
<path fill="none" stroke="black" d="M1210.61,-287.59C1192.24,-262.97 1158.52,-217.8 1137.13,-189.14"/>
<polygon fill="black" stroke="black" points="1140.08,-187.24 1131.29,-181.32 1134.47,-191.43 1140.08,-187.24"/>
</g>
<!-- [root] aws_s3_bucket.lb_logs (expand)&#45;&gt;[root] provider[&quot;registry.terraform.io/hashicorp/aws&quot;] -->
<g id="edge14" class="edge">
<title>[root] aws_s3_bucket.lb_logs (expand)&#45;&gt;[root] provider[&quot;registry.terraform.io/hashicorp/aws&quot;]</title>
<path fill="none" stroke="black" d="M860.69,-145.8C863.7,-145.19 866.69,-144.58 869.61,-144 937.74,-130.41 1015.29,-116.01 1072.12,-105.65"/>
<polygon fill="black" stroke="black" points="1072.5,-109.14 1081.71,-103.91 1071.24,-102.25 1072.5,-109.14"/>
</g>
<!-- [root] aws_s3_bucket_acl.lb_logs (expand) -->
<g id="node8" class="node">
<title>[root] aws_s3_bucket_acl.lb_logs (expand)</title>
<polygon fill="none" stroke="black" points="921.86,-324 757.36,-324 757.36,-288 921.86,-288 921.86,-324"/>
<text text-anchor="middle" x="839.61" y="-300.95" font-family="Times,serif" font-size="14.00">aws_s3_bucket_acl.lb_logs</text>
</g>
<!-- [root] aws_s3_bucket_ownership_controls.lb_logs (expand) -->
<g id="node9" class="node">
<title>[root] aws_s3_bucket_ownership_controls.lb_logs (expand)</title>
<polygon fill="none" stroke="black" points="1077.24,-252 821.99,-252 821.99,-216 1077.24,-216 1077.24,-252"/>
<text text-anchor="middle" x="949.61" y="-228.95" font-family="Times,serif" font-size="14.00">aws_s3_bucket_ownership_controls.lb_logs</text>
</g>
<!-- [root] aws_s3_bucket_acl.lb_logs (expand)&#45;&gt;[root] aws_s3_bucket_ownership_controls.lb_logs (expand) -->
<g id="edge15" class="edge">
<title>[root] aws_s3_bucket_acl.lb_logs (expand)&#45;&gt;[root] aws_s3_bucket_ownership_controls.lb_logs (expand)</title>
<path fill="none" stroke="black" d="M867.08,-287.52C880.97,-278.68 898.01,-267.84 912.99,-258.3"/>
<polygon fill="black" stroke="black" points="914.65,-261.39 921.21,-253.07 910.89,-255.49 914.65,-261.39"/>
</g>
<!-- [root] aws_s3_bucket_ownership_controls.lb_logs (expand)&#45;&gt;[root] aws_s3_bucket.lb_logs (expand) -->
<g id="edge16" class="edge">
<title>[root] aws_s3_bucket_ownership_controls.lb_logs (expand)&#45;&gt;[root] aws_s3_bucket.lb_logs (expand)</title>
<path fill="none" stroke="black" d="M909.65,-215.52C888.47,-206.25 862.26,-194.78 839.73,-184.93"/>
<polygon fill="black" stroke="black" points="841.29,-181.79 830.73,-180.99 838.49,-188.2 841.29,-181.79"/>
</g>
<!-- [root] aws_s3_bucket_policy.lb_logs (expand) -->
<g id="node10" class="node">
<title>[root] aws_s3_bucket_policy.lb_logs (expand)</title>
<polygon fill="none" stroke="black" points="765.49,-252 583.74,-252 583.74,-216 765.49,-216 765.49,-252"/>
<text text-anchor="middle" x="674.61" y="-228.95" font-family="Times,serif" font-size="14.00">aws_s3_bucket_policy.lb_logs</text>
</g>
<!-- [root] aws_s3_bucket_policy.lb_logs (expand)&#45;&gt;[root] aws_s3_bucket.lb_logs (expand) -->
<g id="edge17" class="edge">
<title>[root] aws_s3_bucket_policy.lb_logs (expand)&#45;&gt;[root] aws_s3_bucket.lb_logs (expand)</title>
<path fill="none" stroke="black" d="M703.33,-215.52C717.99,-206.6 736,-195.63 751.77,-186.03"/>
<polygon fill="black" stroke="black" points="753.24,-189.24 759.96,-181.05 749.6,-183.26 753.24,-189.24"/>
</g>
<!-- [root] aws_s3_bucket_versioning.lb_logs (expand) -->
<g id="node11" class="node">
<title>[root] aws_s3_bucket_versioning.lb_logs (expand)</title>
<polygon fill="none" stroke="black" points="739.49,-324 533.74,-324 533.74,-288 739.49,-288 739.49,-324"/>
<text text-anchor="middle" x="636.61" y="-300.95" font-family="Times,serif" font-size="14.00">aws_s3_bucket_versioning.lb_logs</text>
</g>
<!-- [root] aws_s3_bucket_versioning.lb_logs (expand)&#45;&gt;[root] aws_s3_bucket.lb_logs (expand) -->
<g id="edge18" class="edge">
<title>[root] aws_s3_bucket_versioning.lb_logs (expand)&#45;&gt;[root] aws_s3_bucket.lb_logs (expand)</title>
<path fill="none" stroke="black" d="M722.38,-287.55C742.11,-279.72 761.21,-268.39 774.61,-252 788.26,-235.3 791.57,-210.83 791.71,-191.77"/>
<polygon fill="black" stroke="black" points="795.22,-191.87 791.48,-181.96 788.22,-192.04 795.22,-191.87"/>
</g>
<!-- [root] data.external.public_ip (expand) -->
<g id="node14" class="node">
<title>[root] data.external.public_ip (expand)</title>
<polygon fill="none" stroke="black" points="2413.86,-108 2273.36,-108 2273.36,-72 2413.86,-72 2413.86,-108"/>
<text text-anchor="middle" x="2343.61" y="-84.95" font-family="Times,serif" font-size="14.00">data.external.public_ip</text>
</g>
<!-- [root] aws_security_group.instances (expand)&#45;&gt;[root] data.external.public_ip (expand) -->
<g id="edge19" class="edge">
<title>[root] aws_security_group.instances (expand)&#45;&gt;[root] data.external.public_ip (expand)</title>
<path fill="none" stroke="black" d="M1763.03,-145.19C1765.92,-144.77 1768.79,-144.38 1771.61,-144 1945.39,-120.91 2150.2,-104.54 2261.5,-96.55"/>
<polygon fill="black" stroke="black" points="2261.73,-100.04 2271.45,-95.84 2261.23,-93.06 2261.73,-100.04"/>
</g>
<!-- [root] aws_security_group.instances (expand)&#45;&gt;[root] data.terraform_remote_state.training_account (expand) -->
<g id="edge20" class="edge">
<title>[root] aws_security_group.instances (expand)&#45;&gt;[root] data.terraform_remote_state.training_account (expand)</title>
<path fill="none" stroke="black" d="M1664.96,-143.7C1661.14,-136.07 1656.57,-126.92 1652.31,-118.4"/>
<polygon fill="black" stroke="black" points="1655.44,-116.84 1647.84,-109.46 1649.18,-119.97 1655.44,-116.84"/>
</g>
<!-- [root] aws_security_group.instances (expand)&#45;&gt;[root] provider[&quot;registry.terraform.io/hashicorp/aws&quot;] -->
<g id="edge21" class="edge">
<title>[root] aws_security_group.instances (expand)&#45;&gt;[root] provider[&quot;registry.terraform.io/hashicorp/aws&quot;]</title>
<path fill="none" stroke="black" d="M1584.18,-145.31C1581.29,-144.86 1578.43,-144.42 1575.61,-144 1469.2,-128.1 1347.21,-113.13 1261.85,-103.18"/>
<polygon fill="black" stroke="black" points="1262.42,-99.72 1252.08,-102.05 1261.61,-106.68 1262.42,-99.72"/>
</g>
<!-- [root] aws_security_group.public_lb (expand)&#45;&gt;[root] data.terraform_remote_state.training_account (expand) -->
<g id="edge22" class="edge">
<title>[root] aws_security_group.public_lb (expand)&#45;&gt;[root] data.terraform_remote_state.training_account (expand)</title>
<path fill="none" stroke="black" d="M1388.03,-143.52C1435.54,-133.56 1495.22,-121.05 1544.41,-110.74"/>
<polygon fill="black" stroke="black" points="1544.83,-114.23 1553.9,-108.75 1543.4,-107.38 1544.83,-114.23"/>
</g>
<!-- [root] aws_security_group.public_lb (expand)&#45;&gt;[root] provider[&quot;registry.terraform.io/hashicorp/aws&quot;] -->
<g id="edge23" class="edge">
<title>[root] aws_security_group.public_lb (expand)&#45;&gt;[root] provider[&quot;registry.terraform.io/hashicorp/aws&quot;]</title>
<path fill="none" stroke="black" d="M1266.9,-143.52C1245.65,-133.67 1219.03,-121.33 1196.93,-111.08"/>
<polygon fill="black" stroke="black" points="1198.41,-107.91 1187.86,-106.88 1195.46,-114.26 1198.41,-107.91"/>
</g>
<!-- [root] provider[&quot;registry.terraform.io/hashicorp/external&quot;] -->
<g id="node18" class="node">
<title>[root] provider[&quot;registry.terraform.io/hashicorp/external&quot;]</title>
<polygon fill="none" stroke="black" points="2343.61,-36 2057.47,-18 2343.61,0 2629.76,-18 2343.61,-36"/>
<text text-anchor="middle" x="2343.61" y="-12.95" font-family="Times,serif" font-size="14.00">provider[&quot;registry.terraform.io/hashicorp/external&quot;]</text>
</g>
<!-- [root] data.external.public_ip (expand)&#45;&gt;[root] provider[&quot;registry.terraform.io/hashicorp/external&quot;] -->
<g id="edge24" class="edge">
<title>[root] data.external.public_ip (expand)&#45;&gt;[root] provider[&quot;registry.terraform.io/hashicorp/external&quot;]</title>
<path fill="none" stroke="black" d="M2343.61,-71.7C2343.61,-64.41 2343.61,-55.73 2343.61,-47.54"/>
<polygon fill="black" stroke="black" points="2347.11,-47.62 2343.61,-37.62 2340.11,-47.62 2347.11,-47.62"/>
</g>
<!-- [root] provider[&quot;terraform.io/builtin/terraform&quot;] -->
<g id="node20" class="node">
<title>[root] provider[&quot;terraform.io/builtin/terraform&quot;]</title>
<polygon fill="none" stroke="black" points="1638.61,-36 1403.86,-18 1638.61,0 1873.36,-18 1638.61,-36"/>
<text text-anchor="middle" x="1638.61" y="-12.95" font-family="Times,serif" font-size="14.00">provider[&quot;terraform.io/builtin/terraform&quot;]</text>
</g>
<!-- [root] data.terraform_remote_state.training_account (expand)&#45;&gt;[root] provider[&quot;terraform.io/builtin/terraform&quot;] -->
<g id="edge25" class="edge">
<title>[root] data.terraform_remote_state.training_account (expand)&#45;&gt;[root] provider[&quot;terraform.io/builtin/terraform&quot;]</title>
<path fill="none" stroke="black" d="M1638.61,-71.7C1638.61,-64.41 1638.61,-55.73 1638.61,-47.54"/>
<polygon fill="black" stroke="black" points="1642.11,-47.62 1638.61,-37.62 1635.11,-47.62 1642.11,-47.62"/>
</g>
<!-- [root] ns1_record.todo&#45;api (expand) -->
<g id="node16" class="node">
<title>[root] ns1_record.todo&#45;api (expand)</title>
<polygon fill="none" stroke="black" points="1887.99,-324 1763.24,-324 1763.24,-288 1887.99,-288 1887.99,-324"/>
<text text-anchor="middle" x="1825.61" y="-300.95" font-family="Times,serif" font-size="14.00">ns1_record.todo&#45;api</text>
</g>
<!-- [root] ns1_record.todo&#45;api (expand)&#45;&gt;[root] aws_lb.todo (expand) -->
<g id="edge26" class="edge">
<title>[root] ns1_record.todo&#45;api (expand)&#45;&gt;[root] aws_lb.todo (expand)</title>
<path fill="none" stroke="black" d="M1762.86,-294.7C1747.73,-292.36 1731.61,-289.98 1716.61,-288 1569.91,-268.59 1531.76,-275.23 1385.61,-252 1376.43,-250.54 1366.72,-248.73 1357.33,-246.85"/>
<polygon fill="black" stroke="black" points="1358.07,-243.43 1347.57,-244.83 1356.66,-250.28 1358.07,-243.43"/>
</g>
<!-- [root] provider[&quot;registry.terraform.io/ns1&#45;terraform/ns1&quot;] -->
<g id="node19" class="node">
<title>[root] provider[&quot;registry.terraform.io/ns1&#45;terraform/ns1&quot;]</title>
<polygon fill="none" stroke="black" points="1812.61,-252 1528.64,-234 1812.61,-216 2096.58,-234 1812.61,-252"/>
<text text-anchor="middle" x="1812.61" y="-228.95" font-family="Times,serif" font-size="14.00">provider[&quot;registry.terraform.io/ns1&#45;terraform/ns1&quot;]</text>
</g>
<!-- [root] ns1_record.todo&#45;api (expand)&#45;&gt;[root] provider[&quot;registry.terraform.io/ns1&#45;terraform/ns1&quot;] -->
<g id="edge27" class="edge">
<title>[root] ns1_record.todo&#45;api (expand)&#45;&gt;[root] provider[&quot;registry.terraform.io/ns1&#45;terraform/ns1&quot;]</title>
<path fill="none" stroke="black" d="M1822.4,-287.7C1821.03,-280.32 1819.39,-271.52 1817.86,-263.25"/>
<polygon fill="black" stroke="black" points="1821.33,-262.79 1816.06,-253.59 1814.45,-264.06 1821.33,-262.79"/>
</g>
<!-- [root] var.personal_ns1_apikey -->
<g id="node22" class="node">
<title>[root] var.personal_ns1_apikey</title>
<polygon fill="none" stroke="black" points="1924.74,-180 1780.49,-180 1780.49,-144 1930.74,-144 1930.74,-174 1924.74,-180"/>
<polyline fill="none" stroke="black" points="1924.74,-180 1924.74,-174"/>
<polyline fill="none" stroke="black" points="1930.74,-174 1924.74,-174"/>
<text text-anchor="middle" x="1855.61" y="-156.95" font-family="Times,serif" font-size="14.00">var.personal_ns1_apikey</text>
</g>
<!-- [root] provider[&quot;registry.terraform.io/ns1&#45;terraform/ns1&quot;]&#45;&gt;[root] var.personal_ns1_apikey -->
<g id="edge40" class="edge">
<title>[root] provider[&quot;registry.terraform.io/ns1&#45;terraform/ns1&quot;]&#45;&gt;[root] var.personal_ns1_apikey</title>
<path fill="none" stroke="black" d="M1822.8,-216.41C1827.64,-208.54 1833.54,-198.93 1839,-190.04"/>
<polygon fill="black" stroke="black" points="1841.85,-192.09 1844.1,-181.74 1835.88,-188.43 1841.85,-192.09"/>
</g>
<!-- [root] var.aws_profile -->
<g id="node21" class="node">
<title>[root] var.aws_profile</title>
<polygon fill="none" stroke="black" points="395.61,-396 301.61,-396 301.61,-360 401.61,-360 401.61,-390 395.61,-396"/>
<polyline fill="none" stroke="black" points="395.61,-396 395.61,-390"/>
<polyline fill="none" stroke="black" points="401.61,-390 395.61,-390"/>
<text text-anchor="middle" x="351.61" y="-372.95" font-family="Times,serif" font-size="14.00">var.aws_profile</text>
</g>
<!-- [root] output.bucket_lb_logs_hostname (expand) -->
<g id="node25" class="node">
<title>[root] output.bucket_lb_logs_hostname (expand)</title>
<ellipse fill="none" stroke="black" cx="192.61" cy="-306" rx="192.61" ry="18"/>
<text text-anchor="middle" x="192.61" y="-300.95" font-family="Times,serif" font-size="14.00">[root] output.bucket_lb_logs_hostname (expand)</text>
</g>
<!-- [root] output.bucket_lb_logs_hostname (expand)&#45;&gt;[root] aws_s3_bucket.lb_logs (expand) -->
<g id="edge28" class="edge">
<title>[root] output.bucket_lb_logs_hostname (expand)&#45;&gt;[root] aws_s3_bucket.lb_logs (expand)</title>
<path fill="none" stroke="black" d="M152.84,-288.01C138.06,-279.5 122.88,-267.63 114.61,-252 107.12,-237.86 103.75,-227.75 114.61,-216 154.05,-173.34 535.17,-164.96 706.69,-163.36"/>
<polygon fill="black" stroke="black" points="706.69,-166.86 716.66,-163.27 706.63,-159.86 706.69,-166.86"/>
</g>
<!-- [root] output.bucket_lb_logs_region_hostname (expand) -->
<g id="node26" class="node">
<title>[root] output.bucket_lb_logs_region_hostname (expand)</title>
<ellipse fill="none" stroke="black" cx="344.61" cy="-234" rx="220.76" ry="18"/>
<text text-anchor="middle" x="344.61" y="-228.95" font-family="Times,serif" font-size="14.00">[root] output.bucket_lb_logs_region_hostname (expand)</text>
</g>
<!-- [root] output.bucket_lb_logs_region_hostname (expand)&#45;&gt;[root] aws_s3_bucket.lb_logs (expand) -->
<g id="edge29" class="edge">
<title>[root] output.bucket_lb_logs_region_hostname (expand)&#45;&gt;[root] aws_s3_bucket.lb_logs (expand)</title>
<path fill="none" stroke="black" d="M443.37,-217.46C522.65,-204.99 632.65,-187.69 707.24,-175.96"/>
<polygon fill="black" stroke="black" points="707.6,-179.44 716.94,-174.43 706.52,-172.53 707.6,-179.44"/>
</g>
<!-- [root] output.lb_todo_hostname (expand) -->
<g id="node27" class="node">
<title>[root] output.lb_todo_hostname (expand)</title>
<ellipse fill="none" stroke="black" cx="1543.61" cy="-306" rx="164.46" ry="18"/>
<text text-anchor="middle" x="1543.61" y="-300.95" font-family="Times,serif" font-size="14.00">[root] output.lb_todo_hostname (expand)</text>
</g>
<!-- [root] output.lb_todo_hostname (expand)&#45;&gt;[root] aws_lb.todo (expand) -->
<g id="edge30" class="edge">
<title>[root] output.lb_todo_hostname (expand)&#45;&gt;[root] aws_lb.todo (expand)</title>
<path fill="none" stroke="black" d="M1487.88,-288.68C1448.33,-277.09 1395.61,-261.65 1356.87,-250.31"/>
<polygon fill="black" stroke="black" points="1357.86,-246.95 1347.28,-247.5 1355.89,-253.67 1357.86,-246.95"/>
</g>
<!-- [root] output.todo_api_hostname (expand) -->
<g id="node28" class="node">
<title>[root] output.todo_api_hostname (expand)</title>
<ellipse fill="none" stroke="black" cx="1575.61" cy="-378" rx="168.56" ry="18"/>
<text text-anchor="middle" x="1575.61" y="-372.95" font-family="Times,serif" font-size="14.00">[root] output.todo_api_hostname (expand)</text>
</g>
<!-- [root] output.todo_api_hostname (expand)&#45;&gt;[root] ns1_record.todo&#45;api (expand) -->
<g id="edge31" class="edge">
<title>[root] output.todo_api_hostname (expand)&#45;&gt;[root] ns1_record.todo&#45;api (expand)</title>
<path fill="none" stroke="black" d="M1633.91,-360.68C1669.23,-350.79 1714.61,-338.08 1752.35,-327.51"/>
<polygon fill="black" stroke="black" points="1753.14,-330.93 1761.82,-324.86 1751.25,-324.19 1753.14,-330.93"/>
</g>
<!-- [root] output.todo_ips (expand) -->
<g id="node29" class="node">
<title>[root] output.todo_ips (expand)</title>
<ellipse fill="none" stroke="black" cx="1261.61" cy="-378" rx="127.61" ry="18"/>
<text text-anchor="middle" x="1261.61" y="-372.95" font-family="Times,serif" font-size="14.00">[root] output.todo_ips (expand)</text>
</g>
<!-- [root] output.todo_ips (expand)&#45;&gt;[root] aws_instance.todo (expand) -->
<g id="edge32" class="edge">
<title>[root] output.todo_ips (expand)&#45;&gt;[root] aws_instance.todo (expand)</title>
<path fill="none" stroke="black" d="M1354.14,-365.28C1368.68,-363.48 1383.55,-361.67 1397.61,-360 1468.45,-351.58 1669.08,-377.2 1716.61,-324 1819.12,-209.27 1818.53,-314.52 1521.8,-252.37"/>
<polygon fill="black" stroke="black" points="1522.65,-248.97 1512.14,-250.3 1521.19,-255.81 1522.65,-248.97"/>
</g>
<!-- [root] provider[&quot;registry.terraform.io/hashicorp/aws&quot;] (close) -->
<g id="node30" class="node">
<title>[root] provider[&quot;registry.terraform.io/hashicorp/aws&quot;] (close)</title>
<ellipse fill="none" stroke="black" cx="839.61" cy="-378" rx="238.16" ry="18"/>
<text text-anchor="middle" x="839.61" y="-372.95" font-family="Times,serif" font-size="14.00">[root] provider[&quot;registry.terraform.io/hashicorp/aws&quot;] (close)</text>
</g>
<!-- [root] provider[&quot;registry.terraform.io/hashicorp/aws&quot;] (close)&#45;&gt;[root] aws_lb_listener.todo (expand) -->
<g id="edge33" class="edge">
<title>[root] provider[&quot;registry.terraform.io/hashicorp/aws&quot;] (close)&#45;&gt;[root] aws_lb_listener.todo (expand)</title>
<path fill="none" stroke="black" d="M879.73,-359.88C901.6,-350.54 928.91,-338.88 952.32,-328.89"/>
<polygon fill="black" stroke="black" points="953.55,-332.17 961.37,-325.03 950.8,-325.73 953.55,-332.17"/>
</g>
<!-- [root] provider[&quot;registry.terraform.io/hashicorp/aws&quot;] (close)&#45;&gt;[root] aws_lb_target_group_attachment.todo_instance (expand) -->
<g id="edge34" class="edge">
<title>[root] provider[&quot;registry.terraform.io/hashicorp/aws&quot;] (close)&#45;&gt;[root] aws_lb_target_group_attachment.todo_instance (expand)</title>
<path fill="none" stroke="black" d="M928.19,-360.85C984.27,-350.63 1057.12,-337.35 1116.45,-326.53"/>
<polygon fill="black" stroke="black" points="1117.05,-329.98 1126.26,-324.75 1115.79,-323.1 1117.05,-329.98"/>
</g>
<!-- [root] provider[&quot;registry.terraform.io/hashicorp/aws&quot;] (close)&#45;&gt;[root] aws_s3_bucket_acl.lb_logs (expand) -->
<g id="edge35" class="edge">
<title>[root] provider[&quot;registry.terraform.io/hashicorp/aws&quot;] (close)&#45;&gt;[root] aws_s3_bucket_acl.lb_logs (expand)</title>
<path fill="none" stroke="black" d="M839.61,-359.7C839.61,-352.41 839.61,-343.73 839.61,-335.54"/>
<polygon fill="black" stroke="black" points="843.11,-335.62 839.61,-325.62 836.11,-335.62 843.11,-335.62"/>
</g>
<!-- [root] provider[&quot;registry.terraform.io/hashicorp/aws&quot;] (close)&#45;&gt;[root] aws_s3_bucket_policy.lb_logs (expand) -->
<g id="edge36" class="edge">
<title>[root] provider[&quot;registry.terraform.io/hashicorp/aws&quot;] (close)&#45;&gt;[root] aws_s3_bucket_policy.lb_logs (expand)</title>
<path fill="none" stroke="black" d="M656.32,-366.2C597.65,-358.64 543.05,-345.81 524.61,-324 498.71,-293.38 539.75,-270.62 585.41,-255.79"/>
<polygon fill="black" stroke="black" points="586.17,-259.22 594.68,-252.91 584.09,-252.53 586.17,-259.22"/>
</g>
<!-- [root] provider[&quot;registry.terraform.io/hashicorp/aws&quot;] (close)&#45;&gt;[root] aws_s3_bucket_versioning.lb_logs (expand) -->
<g id="edge37" class="edge">
<title>[root] provider[&quot;registry.terraform.io/hashicorp/aws&quot;] (close)&#45;&gt;[root] aws_s3_bucket_versioning.lb_logs (expand)</title>
<path fill="none" stroke="black" d="M790.21,-359.97C762.41,-350.38 727.45,-338.32 697.91,-328.14"/>
<polygon fill="black" stroke="black" points="699.32,-324.92 688.72,-324.97 697.04,-331.54 699.32,-324.92"/>
</g>
<!-- [root] provider[&quot;registry.terraform.io/hashicorp/external&quot;] (close) -->
<g id="node31" class="node">
<title>[root] provider[&quot;registry.terraform.io/hashicorp/external&quot;] (close)</title>
<ellipse fill="none" stroke="black" cx="2576.61" cy="-378" rx="253.52" ry="18"/>
<text text-anchor="middle" x="2576.61" y="-372.95" font-family="Times,serif" font-size="14.00">[root] provider[&quot;registry.terraform.io/hashicorp/external&quot;] (close)</text>
</g>
<!-- [root] provider[&quot;registry.terraform.io/hashicorp/external&quot;] (close)&#45;&gt;[root] data.external.public_ip (expand) -->
<g id="edge38" class="edge">
<title>[root] provider[&quot;registry.terraform.io/hashicorp/external&quot;] (close)&#45;&gt;[root] data.external.public_ip (expand)</title>
<path fill="none" stroke="black" d="M2579.25,-359.83C2583.14,-328.46 2587.06,-260.97 2557.61,-216 2523.9,-164.53 2461.07,-131.55 2412.18,-112.47"/>
<polygon fill="black" stroke="black" points="2413.66,-109.29 2403.07,-109.03 2411.19,-115.84 2413.66,-109.29"/>
</g>
<!-- [root] provider[&quot;registry.terraform.io/ns1&#45;terraform/ns1&quot;] (close) -->
<g id="node32" class="node">
<title>[root] provider[&quot;registry.terraform.io/ns1&#45;terraform/ns1&quot;] (close)</title>
<ellipse fill="none" stroke="black" cx="2014.61" cy="-378" rx="251.98" ry="18"/>
<text text-anchor="middle" x="2014.61" y="-372.95" font-family="Times,serif" font-size="14.00">[root] provider[&quot;registry.terraform.io/ns1&#45;terraform/ns1&quot;] (close)</text>
</g>
<!-- [root] provider[&quot;registry.terraform.io/ns1&#45;terraform/ns1&quot;] (close)&#45;&gt;[root] ns1_record.todo&#45;api (expand) -->
<g id="edge39" class="edge">
<title>[root] provider[&quot;registry.terraform.io/ns1&#45;terraform/ns1&quot;] (close)&#45;&gt;[root] ns1_record.todo&#45;api (expand)</title>
<path fill="none" stroke="black" d="M1968.38,-359.88C1942.71,-350.37 1910.56,-338.46 1883.27,-328.35"/>
<polygon fill="black" stroke="black" points="1884.69,-325.15 1874.1,-324.96 1882.26,-331.71 1884.69,-325.15"/>
</g>
<!-- [root] provider[&quot;terraform.io/builtin/terraform&quot;] (close) -->
<g id="node33" class="node">
<title>[root] provider[&quot;terraform.io/builtin/terraform&quot;] (close)</title>
<ellipse fill="none" stroke="black" cx="2331.61" cy="-234" rx="217.18" ry="18"/>
<text text-anchor="middle" x="2331.61" y="-228.95" font-family="Times,serif" font-size="14.00">[root] provider[&quot;terraform.io/builtin/terraform&quot;] (close)</text>
</g>
<!-- [root] provider[&quot;terraform.io/builtin/terraform&quot;] (close)&#45;&gt;[root] data.terraform_remote_state.training_account (expand) -->
<g id="edge41" class="edge">
<title>[root] provider[&quot;terraform.io/builtin/terraform&quot;] (close)&#45;&gt;[root] data.terraform_remote_state.training_account (expand)</title>
<path fill="none" stroke="black" d="M2263.49,-216.47C2185.47,-197.78 2053.69,-166.98 1939.61,-144 1879.51,-131.89 1812.35,-119.92 1756.74,-110.42"/>
<polygon fill="black" stroke="black" points="1757.35,-106.98 1746.91,-108.75 1756.18,-113.88 1757.35,-106.98"/>
</g>
<!-- [root] root -->
<g id="node34" class="node">
<title>[root] root</title>
<ellipse fill="none" stroke="black" cx="1183.61" cy="-450" rx="49.3" ry="18"/>
<text text-anchor="middle" x="1183.61" y="-444.95" font-family="Times,serif" font-size="14.00">[root] root</text>
</g>
<!-- [root] root&#45;&gt;[root] var.aws_profile -->
<g id="edge51" class="edge">
<title>[root] root&#45;&gt;[root] var.aws_profile</title>
<path fill="none" stroke="black" d="M1134.26,-448.84C1011.77,-447.75 684.26,-440.53 415.61,-396 414.78,-395.86 413.95,-395.72 413.11,-395.57"/>
<polygon fill="black" stroke="black" points="414.05,-392.19 403.56,-393.65 412.67,-399.05 414.05,-392.19"/>
</g>
<!-- [root] root&#45;&gt;[root] output.bucket_lb_logs_hostname (expand) -->
<g id="edge42" class="edge">
<title>[root] root&#45;&gt;[root] output.bucket_lb_logs_hostname (expand)</title>
<path fill="none" stroke="black" d="M1133.86,-449.33C990.26,-449.67 577.43,-446.14 453.61,-396 430.51,-386.65 432.86,-371.24 410.61,-360 378.14,-343.6 340.35,-332.11 305.44,-324.13"/>
<polygon fill="black" stroke="black" points="306.21,-320.72 295.69,-321.99 304.71,-327.56 306.21,-320.72"/>
</g>
<!-- [root] root&#45;&gt;[root] output.bucket_lb_logs_region_hostname (expand) -->
<g id="edge43" class="edge">
<title>[root] root&#45;&gt;[root] output.bucket_lb_logs_region_hostname (expand)</title>
<path fill="none" stroke="black" d="M1134.47,-447.63C1011.36,-443.72 692.41,-430.48 592.61,-396 504.05,-365.41 415.71,-296.6 372.29,-259.62"/>
<polygon fill="black" stroke="black" points="374.73,-257.1 364.87,-253.22 370.16,-262.4 374.73,-257.1"/>
</g>
<!-- [root] root&#45;&gt;[root] output.lb_todo_hostname (expand) -->
<g id="edge44" class="edge">
<title>[root] root&#45;&gt;[root] output.lb_todo_hostname (expand)</title>
<path fill="none" stroke="black" d="M1161.05,-433.62C1136.63,-415.13 1103.77,-383.64 1124.61,-360 1129.54,-354.4 1297.64,-334.49 1419.39,-320.74"/>
<polygon fill="black" stroke="black" points="1419.6,-324.23 1429.14,-319.64 1418.82,-317.28 1419.6,-324.23"/>
</g>
<!-- [root] root&#45;&gt;[root] output.todo_api_hostname (expand) -->
<g id="edge45" class="edge">
<title>[root] root&#45;&gt;[root] output.todo_api_hostname (expand)</title>
<path fill="none" stroke="black" d="M1227.06,-441.24C1287.79,-430.4 1399.67,-410.42 1480.31,-396.02"/>
<polygon fill="black" stroke="black" points="1480.76,-399.49 1489.99,-394.29 1479.53,-392.6 1480.76,-399.49"/>
</g>
<!-- [root] root&#45;&gt;[root] output.todo_ips (expand) -->
<g id="edge46" class="edge">
<title>[root] root&#45;&gt;[root] output.todo_ips (expand)</title>
<path fill="none" stroke="black" d="M1201.7,-432.76C1211.36,-424.1 1223.45,-413.25 1234.23,-403.57"/>
<polygon fill="black" stroke="black" points="1236.3,-406.42 1241.4,-397.13 1231.62,-401.21 1236.3,-406.42"/>
</g>
<!-- [root] root&#45;&gt;[root] provider[&quot;registry.terraform.io/hashicorp/aws&quot;] (close) -->
<g id="edge47" class="edge">
<title>[root] root&#45;&gt;[root] provider[&quot;registry.terraform.io/hashicorp/aws&quot;] (close)</title>
<path fill="none" stroke="black" d="M1141.43,-440.42C1089.42,-429.83 999.57,-411.55 931.38,-397.67"/>
<polygon fill="black" stroke="black" points="932.19,-394.27 921.69,-395.7 930.79,-401.13 932.19,-394.27"/>
</g>
<!-- [root] root&#45;&gt;[root] provider[&quot;registry.terraform.io/hashicorp/external&quot;] (close) -->
<g id="edge48" class="edge">
<title>[root] root&#45;&gt;[root] provider[&quot;registry.terraform.io/hashicorp/external&quot;] (close)</title>
<path fill="none" stroke="black" d="M1232.69,-446.97C1389.51,-440.44 1892.52,-419 2308.61,-396 2332.94,-394.66 2358.51,-393.15 2383.79,-391.61"/>
<polygon fill="black" stroke="black" points="2383.71,-395.12 2393.48,-391.01 2383.28,-388.13 2383.71,-395.12"/>
</g>
<!-- [root] root&#45;&gt;[root] provider[&quot;registry.terraform.io/ns1&#45;terraform/ns1&quot;] (close) -->
<g id="edge49" class="edge">
<title>[root] root&#45;&gt;[root] provider[&quot;registry.terraform.io/ns1&#45;terraform/ns1&quot;] (close)</title>
<path fill="none" stroke="black" d="M1231.27,-444.99C1347.76,-435.17 1651.48,-409.59 1844.69,-393.31"/>
<polygon fill="black" stroke="black" points="1844.92,-396.81 1854.59,-392.48 1844.33,-389.83 1844.92,-396.81"/>
</g>
<!-- [root] root&#45;&gt;[root] provider[&quot;terraform.io/builtin/terraform&quot;] (close) -->
<g id="edge50" class="edge">
<title>[root] root&#45;&gt;[root] provider[&quot;terraform.io/builtin/terraform&quot;] (close)</title>
<path fill="none" stroke="black" d="M1232.99,-448.13C1440.54,-444.29 2233.36,-427.6 2275.61,-396 2317.2,-364.89 2328.08,-300.76 2330.82,-263.51"/>
<polygon fill="black" stroke="black" points="2334.29,-264.13 2331.36,-253.95 2327.3,-263.74 2334.29,-264.13"/>
</g>
</g>
</svg>
