<?xml version="1.0" encoding="UTF-8" standalone="no"?>
<!DOCTYPE svg PUBLIC "-//W3C//DTD SVG 1.1//EN"
 "http://www.w3.org/Graphics/SVG/1.1/DTD/svg11.dtd">
<!-- Generated by graphviz version 5.0.1 (20220820.1526)
 -->
<!-- Pages: 1 -->
<svg width="2373pt" height="476pt"
 viewBox="0.00 0.00 2373.28 476.00" xmlns="http://www.w3.org/2000/svg" xmlns:xlink="http://www.w3.org/1999/xlink">
<g id="graph0" class="graph" transform="scale(1 1) rotate(0) translate(4 472)">
<polygon fill="white" stroke="none" points="-4,4 -4,-472 2369.28,-472 2369.28,4 -4,4"/>
<!-- [root] aws_instance.todo (expand) -->
<g id="node1" class="node">
<title>[root] aws_instance.todo (expand)</title>
<polygon fill="none" stroke="black" points="1265.5,-252 1149.5,-252 1149.5,-216 1265.5,-216 1265.5,-252"/>
<text text-anchor="middle" x="1207.5" y="-230.3" font-family="Times,serif" font-size="14.00">aws_instance.todo</text>
</g>
<!-- [root] aws_key_pair.deployer (expand) -->
<g id="node2" class="node">
<title>[root] aws_key_pair.deployer (expand)</title>
<polygon fill="none" stroke="black" points="750.5,-180 608.5,-180 608.5,-144 750.5,-144 750.5,-180"/>
<text text-anchor="middle" x="679.5" y="-158.3" font-family="Times,serif" font-size="14.00">aws_key_pair.deployer</text>
</g>
<!-- [root] aws_instance.todo (expand)&#45;&gt;[root] aws_key_pair.deployer (expand) -->
<g id="edge1" class="edge">
<title>[root] aws_instance.todo (expand)&#45;&gt;[root] aws_key_pair.deployer (expand)</title>
<path fill="none" stroke="black" d="M1149.35,-224.64C1128.87,-221.78 1105.68,-218.64 1084.5,-216 943.52,-198.45 904.71,-202.92 760.63,-180.09"/>
<polygon fill="black" stroke="black" points="760.96,-176.6 750.53,-178.48 759.85,-183.51 760.96,-176.6"/>
</g>
<!-- [root] aws_security_group.instances (expand) -->
<g id="node11" class="node">
<title>[root] aws_security_group.instances (expand)</title>
<polygon fill="none" stroke="black" points="1495,-180 1316,-180 1316,-144 1495,-144 1495,-180"/>
<text text-anchor="middle" x="1405.5" y="-158.3" font-family="Times,serif" font-size="14.00">aws_security_group.instances</text>
</g>
<!-- [root] aws_instance.todo (expand)&#45;&gt;[root] aws_security_group.instances (expand) -->
<g id="edge2" class="edge">
<title>[root] aws_instance.todo (expand)&#45;&gt;[root] aws_security_group.instances (expand)</title>
<path fill="none" stroke="black" d="M1255.68,-215.97C1283.35,-206.19 1318.28,-193.84 1347.45,-183.52"/>
<polygon fill="black" stroke="black" points="1348.84,-186.74 1357.1,-180.11 1346.51,-180.14 1348.84,-186.74"/>
</g>
<!-- [root] var.ssh_private_key_path -->
<g id="node27" class="node">
<title>[root] var.ssh_private_key_path</title>
<polygon fill="none" stroke="black" points="1292,-180 1143,-180 1143,-144 1298,-144 1298,-174 1292,-180"/>
<polyline fill="none" stroke="black" points="1292,-180 1292,-174"/>
<polyline fill="none" stroke="black" points="1298,-174 1292,-174"/>
<text text-anchor="middle" x="1220.5" y="-158.3" font-family="Times,serif" font-size="14.00">var.ssh_private_key_path</text>
</g>
<!-- [root] aws_instance.todo (expand)&#45;&gt;[root] var.ssh_private_key_path -->
<g id="edge3" class="edge">
<title>[root] aws_instance.todo (expand)&#45;&gt;[root] var.ssh_private_key_path</title>
<path fill="none" stroke="black" d="M1210.71,-215.7C1212.15,-207.98 1213.87,-198.71 1215.46,-190.11"/>
<polygon fill="black" stroke="black" points="1218.94,-190.58 1217.32,-180.1 1212.06,-189.3 1218.94,-190.58"/>
</g>
<!-- [root] provider[&quot;registry.terraform.io/hashicorp/aws&quot;] -->
<g id="node21" class="node">
<title>[root] provider[&quot;registry.terraform.io/hashicorp/aws&quot;]</title>
<polygon fill="none" stroke="black" points="886.5,-108 633.96,-90 886.5,-72 1139.04,-90 886.5,-108"/>
<text text-anchor="middle" x="886.5" y="-86.3" font-family="Times,serif" font-size="14.00">provider[&quot;registry.terraform.io/hashicorp/aws&quot;]</text>
</g>
<!-- [root] aws_key_pair.deployer (expand)&#45;&gt;[root] provider[&quot;registry.terraform.io/hashicorp/aws&quot;] -->
<g id="edge4" class="edge">
<title>[root] aws_key_pair.deployer (expand)&#45;&gt;[root] provider[&quot;registry.terraform.io/hashicorp/aws&quot;]</title>
<path fill="none" stroke="black" d="M729.87,-143.97C761.87,-133.15 803.15,-119.18 835.3,-108.31"/>
<polygon fill="black" stroke="black" points="836.62,-111.56 844.97,-105.04 834.37,-104.93 836.62,-111.56"/>
</g>
<!-- [root] var.ssh_public_key_path -->
<g id="node28" class="node">
<title>[root] var.ssh_public_key_path</title>
<polygon fill="none" stroke="black" points="610,-108 465,-108 465,-72 616,-72 616,-102 610,-108"/>
<polyline fill="none" stroke="black" points="610,-108 610,-102"/>
<polyline fill="none" stroke="black" points="616,-102 610,-102"/>
<text text-anchor="middle" x="540.5" y="-86.3" font-family="Times,serif" font-size="14.00">var.ssh_public_key_path</text>
</g>
<!-- [root] aws_key_pair.deployer (expand)&#45;&gt;[root] var.ssh_public_key_path -->
<g id="edge5" class="edge">
<title>[root] aws_key_pair.deployer (expand)&#45;&gt;[root] var.ssh_public_key_path</title>
<path fill="none" stroke="black" d="M645.5,-143.88C626.9,-134.51 603.67,-122.81 583.79,-112.8"/>
<polygon fill="black" stroke="black" points="585.14,-109.56 574.63,-108.19 581.99,-115.81 585.14,-109.56"/>
</g>
<!-- [root] aws_lb.todo (expand) -->
<g id="node3" class="node">
<title>[root] aws_lb.todo (expand)</title>
<polygon fill="none" stroke="black" points="1076,-252 993,-252 993,-216 1076,-216 1076,-252"/>
<text text-anchor="middle" x="1034.5" y="-230.3" font-family="Times,serif" font-size="14.00">aws_lb.todo</text>
</g>
<!-- [root] aws_s3_bucket.lb_logs (expand) -->
<g id="node7" class="node">
<title>[root] aws_s3_bucket.lb_logs (expand)</title>
<polygon fill="none" stroke="black" points="590,-180 447,-180 447,-144 590,-144 590,-180"/>
<text text-anchor="middle" x="518.5" y="-158.3" font-family="Times,serif" font-size="14.00">aws_s3_bucket.lb_logs</text>
</g>
<!-- [root] aws_lb.todo (expand)&#45;&gt;[root] aws_s3_bucket.lb_logs (expand) -->
<g id="edge6" class="edge">
<title>[root] aws_lb.todo (expand)&#45;&gt;[root] aws_s3_bucket.lb_logs (expand)</title>
<path fill="none" stroke="black" d="M992.95,-229.13C917.01,-221.81 750.59,-204.56 600.3,-180.05"/>
<polygon fill="black" stroke="black" points="600.86,-176.6 590.43,-178.43 599.73,-183.51 600.86,-176.6"/>
</g>
<!-- [root] aws_security_group.public_lb (expand) -->
<g id="node12" class="node">
<title>[root] aws_security_group.public_lb (expand)</title>
<polygon fill="none" stroke="black" points="1124.5,-180 944.5,-180 944.5,-144 1124.5,-144 1124.5,-180"/>
<text text-anchor="middle" x="1034.5" y="-158.3" font-family="Times,serif" font-size="14.00">aws_security_group.public_lb</text>
</g>
<!-- [root] aws_lb.todo (expand)&#45;&gt;[root] aws_security_group.public_lb (expand) -->
<g id="edge7" class="edge">
<title>[root] aws_lb.todo (expand)&#45;&gt;[root] aws_security_group.public_lb (expand)</title>
<path fill="none" stroke="black" d="M1034.5,-215.7C1034.5,-207.98 1034.5,-198.71 1034.5,-190.11"/>
<polygon fill="black" stroke="black" points="1038,-190.1 1034.5,-180.1 1031,-190.1 1038,-190.1"/>
</g>
<!-- [root] aws_lb_listener.todo (expand) -->
<g id="node4" class="node">
<title>[root] aws_lb_listener.todo (expand)</title>
<polygon fill="none" stroke="black" points="908.5,-324 780.5,-324 780.5,-288 908.5,-288 908.5,-324"/>
<text text-anchor="middle" x="844.5" y="-302.3" font-family="Times,serif" font-size="14.00">aws_lb_listener.todo</text>
</g>
<!-- [root] aws_lb_listener.todo (expand)&#45;&gt;[root] aws_lb.todo (expand) -->
<g id="edge8" class="edge">
<title>[root] aws_lb_listener.todo (expand)&#45;&gt;[root] aws_lb.todo (expand)</title>
<path fill="none" stroke="black" d="M890.98,-287.88C918.91,-277.58 954.5,-264.48 983.24,-253.88"/>
<polygon fill="black" stroke="black" points="984.54,-257.14 992.71,-250.4 982.12,-250.57 984.54,-257.14"/>
</g>
<!-- [root] aws_lb_target_group.todo (expand) -->
<g id="node5" class="node">
<title>[root] aws_lb_target_group.todo (expand)</title>
<polygon fill="none" stroke="black" points="926.5,-180 768.5,-180 768.5,-144 926.5,-144 926.5,-180"/>
<text text-anchor="middle" x="847.5" y="-158.3" font-family="Times,serif" font-size="14.00">aws_lb_target_group.todo</text>
</g>
<!-- [root] aws_lb_listener.todo (expand)&#45;&gt;[root] aws_lb_target_group.todo (expand) -->
<g id="edge9" class="edge">
<title>[root] aws_lb_listener.todo (expand)&#45;&gt;[root] aws_lb_target_group.todo (expand)</title>
<path fill="none" stroke="black" d="M844.86,-287.87C845.37,-263.67 846.31,-219.21 846.92,-190.39"/>
<polygon fill="black" stroke="black" points="850.42,-190.26 847.14,-180.19 843.43,-190.11 850.42,-190.26"/>
</g>
<!-- [root] data.terraform_remote_state.training_account (expand) -->
<g id="node14" class="node">
<title>[root] data.terraform_remote_state.training_account (expand)</title>
<polygon fill="none" stroke="black" points="1500.5,-108 1234.5,-108 1234.5,-72 1500.5,-72 1500.5,-108"/>
<text text-anchor="middle" x="1367.5" y="-86.3" font-family="Times,serif" font-size="14.00">data.terraform_remote_state.training_account</text>
</g>
<!-- [root] aws_lb_target_group.todo (expand)&#45;&gt;[root] data.terraform_remote_state.training_account (expand) -->
<g id="edge10" class="edge">
<title>[root] aws_lb_target_group.todo (expand)&#45;&gt;[root] data.terraform_remote_state.training_account (expand)</title>
<path fill="none" stroke="black" d="M926.61,-145.45C929.61,-144.95 932.58,-144.46 935.5,-144 1031.43,-128.87 1139.93,-115.57 1224.19,-106.08"/>
<polygon fill="black" stroke="black" points="1224.79,-109.53 1234.34,-104.94 1224.01,-102.58 1224.79,-109.53"/>
</g>
<!-- [root] aws_lb_target_group.todo (expand)&#45;&gt;[root] provider[&quot;registry.terraform.io/hashicorp/aws&quot;] -->
<g id="edge11" class="edge">
<title>[root] aws_lb_target_group.todo (expand)&#45;&gt;[root] provider[&quot;registry.terraform.io/hashicorp/aws&quot;]</title>
<path fill="none" stroke="black" d="M857.14,-143.7C861.69,-135.52 867.22,-125.6 872.25,-116.58"/>
<polygon fill="black" stroke="black" points="875.43,-118.06 877.24,-107.62 869.31,-114.65 875.43,-118.06"/>
</g>
<!-- [root] aws_lb_target_group_attachment.todo_instance (expand) -->
<g id="node6" class="node">
<title>[root] aws_lb_target_group_attachment.todo_instance (expand)</title>
<polygon fill="none" stroke="black" points="1202.5,-324 926.5,-324 926.5,-288 1202.5,-288 1202.5,-324"/>
<text text-anchor="middle" x="1064.5" y="-302.3" font-family="Times,serif" font-size="14.00">aws_lb_target_group_attachment.todo_instance</text>
</g>
<!-- [root] aws_lb_target_group_attachment.todo_instance (expand)&#45;&gt;[root] aws_instance.todo (expand) -->
<g id="edge12" class="edge">
<title>[root] aws_lb_target_group_attachment.todo_instance (expand)&#45;&gt;[root] aws_instance.todo (expand)</title>
<path fill="none" stroke="black" d="M1099.48,-287.88C1118.7,-278.47 1142.73,-266.71 1163.24,-256.67"/>
<polygon fill="black" stroke="black" points="1164.94,-259.73 1172.38,-252.19 1161.86,-253.44 1164.94,-259.73"/>
</g>
<!-- [root] aws_lb_target_group_attachment.todo_instance (expand)&#45;&gt;[root] aws_lb_target_group.todo (expand) -->
<g id="edge13" class="edge">
<title>[root] aws_lb_target_group_attachment.todo_instance (expand)&#45;&gt;[root] aws_lb_target_group.todo (expand)</title>
<path fill="none" stroke="black" d="M1038.32,-287.87C999.3,-262.34 925.82,-214.25 882.31,-185.78"/>
<polygon fill="black" stroke="black" points="884.05,-182.74 873.77,-180.19 880.22,-188.59 884.05,-182.74"/>
</g>
<!-- [root] aws_s3_bucket.lb_logs (expand)&#45;&gt;[root] provider[&quot;registry.terraform.io/hashicorp/aws&quot;] -->
<g id="edge14" class="edge">
<title>[root] aws_s3_bucket.lb_logs (expand)&#45;&gt;[root] provider[&quot;registry.terraform.io/hashicorp/aws&quot;]</title>
<path fill="none" stroke="black" d="M590.03,-145.89C593.23,-145.24 596.4,-144.61 599.5,-144 669.84,-130.13 750.11,-115.4 807.84,-105"/>
<polygon fill="black" stroke="black" points="808.76,-108.39 817.98,-103.17 807.52,-101.5 808.76,-108.39"/>
</g>
<!-- [root] aws_s3_bucket_acl.example (expand) -->
<g id="node8" class="node">
<title>[root] aws_s3_bucket_acl.example (expand)</title>
<polygon fill="none" stroke="black" points="762.5,-324 590.5,-324 590.5,-288 762.5,-288 762.5,-324"/>
<text text-anchor="middle" x="676.5" y="-302.3" font-family="Times,serif" font-size="14.00">aws_s3_bucket_acl.example</text>
</g>
<!-- [root] aws_s3_bucket_acl.example (expand)&#45;&gt;[root] aws_s3_bucket.lb_logs (expand) -->
<g id="edge15" class="edge">
<title>[root] aws_s3_bucket_acl.example (expand)&#45;&gt;[root] aws_s3_bucket.lb_logs (expand)</title>
<path fill="none" stroke="black" d="M657.44,-287.87C629.45,-262.71 577.09,-215.65 545.25,-187.04"/>
<polygon fill="black" stroke="black" points="547.4,-184.27 537.63,-180.19 542.72,-189.48 547.4,-184.27"/>
</g>
<!-- [root] aws_s3_bucket_policy.lb_logs (expand) -->
<g id="node9" class="node">
<title>[root] aws_s3_bucket_policy.lb_logs (expand)</title>
<polygon fill="none" stroke="black" points="348.5,-324 166.5,-324 166.5,-288 348.5,-288 348.5,-324"/>
<text text-anchor="middle" x="257.5" y="-302.3" font-family="Times,serif" font-size="14.00">aws_s3_bucket_policy.lb_logs</text>
</g>
<!-- [root] aws_s3_bucket_policy.lb_logs (expand)&#45;&gt;[root] aws_s3_bucket.lb_logs (expand) -->
<g id="edge16" class="edge">
<title>[root] aws_s3_bucket_policy.lb_logs (expand)&#45;&gt;[root] aws_s3_bucket.lb_logs (expand)</title>
<path fill="none" stroke="black" d="M348.76,-288.28C394.44,-278.56 443.91,-265.58 462.5,-252 484.03,-236.26 499.23,-209.5 508.3,-189.43"/>
<polygon fill="black" stroke="black" points="511.54,-190.75 512.27,-180.18 505.11,-187.99 511.54,-190.75"/>
</g>
<!-- [root] aws_s3_bucket_versioning.lb_logs (expand) -->
<g id="node10" class="node">
<title>[root] aws_s3_bucket_versioning.lb_logs (expand)</title>
<polygon fill="none" stroke="black" points="572.5,-324 366.5,-324 366.5,-288 572.5,-288 572.5,-324"/>
<text text-anchor="middle" x="469.5" y="-302.3" font-family="Times,serif" font-size="14.00">aws_s3_bucket_versioning.lb_logs</text>
</g>
<!-- [root] aws_s3_bucket_versioning.lb_logs (expand)&#45;&gt;[root] aws_s3_bucket.lb_logs (expand) -->
<g id="edge17" class="edge">
<title>[root] aws_s3_bucket_versioning.lb_logs (expand)&#45;&gt;[root] aws_s3_bucket.lb_logs (expand)</title>
<path fill="none" stroke="black" d="M479.08,-287.73C484.45,-277.55 490.95,-264.3 495.5,-252 503.01,-231.7 509.02,-207.93 513.01,-190.07"/>
<polygon fill="black" stroke="black" points="516.48,-190.56 515.17,-180.04 509.64,-189.08 516.48,-190.56"/>
</g>
<!-- [root] data.external.public_ip (expand) -->
<g id="node13" class="node">
<title>[root] data.external.public_ip (expand)</title>
<polygon fill="none" stroke="black" points="2048,-108 1907,-108 1907,-72 2048,-72 2048,-108"/>
<text text-anchor="middle" x="1977.5" y="-86.3" font-family="Times,serif" font-size="14.00">data.external.public_ip</text>
</g>
<!-- [root] aws_security_group.instances (expand)&#45;&gt;[root] data.external.public_ip (expand) -->
<g id="edge18" class="edge">
<title>[root] aws_security_group.instances (expand)&#45;&gt;[root] data.external.public_ip (expand)</title>
<path fill="none" stroke="black" d="M1495.19,-145.22C1497.99,-144.8 1500.76,-144.39 1503.5,-144 1641.12,-124.39 1802.09,-107.7 1896.6,-98.54"/>
<polygon fill="black" stroke="black" points="1897.04,-102.02 1906.66,-97.57 1896.37,-95.05 1897.04,-102.02"/>
</g>
<!-- [root] aws_security_group.instances (expand)&#45;&gt;[root] data.terraform_remote_state.training_account (expand) -->
<g id="edge19" class="edge">
<title>[root] aws_security_group.instances (expand)&#45;&gt;[root] data.terraform_remote_state.training_account (expand)</title>
<path fill="none" stroke="black" d="M1396.11,-143.7C1391.74,-135.64 1386.44,-125.89 1381.6,-116.98"/>
<polygon fill="black" stroke="black" points="1384.63,-115.22 1376.79,-108.1 1378.48,-118.56 1384.63,-115.22"/>
</g>
<!-- [root] aws_security_group.instances (expand)&#45;&gt;[root] provider[&quot;registry.terraform.io/hashicorp/aws&quot;] -->
<g id="edge20" class="edge">
<title>[root] aws_security_group.instances (expand)&#45;&gt;[root] provider[&quot;registry.terraform.io/hashicorp/aws&quot;]</title>
<path fill="none" stroke="black" d="M1315.95,-145.44C1312.76,-144.94 1309.6,-144.46 1306.5,-144 1198.4,-127.91 1074.17,-112.63 989.02,-102.65"/>
<polygon fill="black" stroke="black" points="989.18,-99.14 978.84,-101.45 988.36,-106.09 989.18,-99.14"/>
</g>
<!-- [root] aws_security_group.public_lb (expand)&#45;&gt;[root] data.terraform_remote_state.training_account (expand) -->
<g id="edge21" class="edge">
<title>[root] aws_security_group.public_lb (expand)&#45;&gt;[root] data.terraform_remote_state.training_account (expand)</title>
<path fill="none" stroke="black" d="M1115.54,-143.97C1164.18,-133.74 1226.17,-120.71 1276.49,-110.13"/>
<polygon fill="black" stroke="black" points="1277.32,-113.53 1286.39,-108.05 1275.88,-106.68 1277.32,-113.53"/>
</g>
<!-- [root] aws_security_group.public_lb (expand)&#45;&gt;[root] provider[&quot;registry.terraform.io/hashicorp/aws&quot;] -->
<g id="edge22" class="edge">
<title>[root] aws_security_group.public_lb (expand)&#45;&gt;[root] provider[&quot;registry.terraform.io/hashicorp/aws&quot;]</title>
<path fill="none" stroke="black" d="M998.3,-143.88C976.73,-133.68 949.31,-120.71 927.02,-110.17"/>
<polygon fill="black" stroke="black" points="928.36,-106.92 917.82,-105.81 925.36,-113.25 928.36,-106.92"/>
</g>
<!-- [root] provider[&quot;registry.terraform.io/hashicorp/external&quot;] -->
<g id="node22" class="node">
<title>[root] provider[&quot;registry.terraform.io/hashicorp/external&quot;]</title>
<polygon fill="none" stroke="black" points="1977.5,-36 1704.52,-18 1977.5,0 2250.48,-18 1977.5,-36"/>
<text text-anchor="middle" x="1977.5" y="-14.3" font-family="Times,serif" font-size="14.00">provider[&quot;registry.terraform.io/hashicorp/external&quot;]</text>
</g>
<!-- [root] data.external.public_ip (expand)&#45;&gt;[root] provider[&quot;registry.terraform.io/hashicorp/external&quot;] -->
<g id="edge23" class="edge">
<title>[root] data.external.public_ip (expand)&#45;&gt;[root] provider[&quot;registry.terraform.io/hashicorp/external&quot;]</title>
<path fill="none" stroke="black" d="M1977.5,-71.7C1977.5,-63.98 1977.5,-54.71 1977.5,-46.11"/>
<polygon fill="black" stroke="black" points="1981,-46.1 1977.5,-36.1 1974,-46.1 1981,-46.1"/>
</g>
<!-- [root] provider[&quot;terraform.io/builtin/terraform&quot;] -->
<g id="node24" class="node">
<title>[root] provider[&quot;terraform.io/builtin/terraform&quot;]</title>
<polygon fill="none" stroke="black" points="1367.5,-36 1143.45,-18 1367.5,0 1591.55,-18 1367.5,-36"/>
<text text-anchor="middle" x="1367.5" y="-14.3" font-family="Times,serif" font-size="14.00">provider[&quot;terraform.io/builtin/terraform&quot;]</text>
</g>
<!-- [root] data.terraform_remote_state.training_account (expand)&#45;&gt;[root] provider[&quot;terraform.io/builtin/terraform&quot;] -->
<g id="edge24" class="edge">
<title>[root] data.terraform_remote_state.training_account (expand)&#45;&gt;[root] provider[&quot;terraform.io/builtin/terraform&quot;]</title>
<path fill="none" stroke="black" d="M1367.5,-71.7C1367.5,-63.98 1367.5,-54.71 1367.5,-46.11"/>
<polygon fill="black" stroke="black" points="1371,-46.1 1367.5,-36.1 1364,-46.1 1371,-46.1"/>
</g>
<!-- [root] ns1_record.todo&#45;api (expand) -->
<g id="node15" class="node">
<title>[root] ns1_record.todo&#45;api (expand)</title>
<polygon fill="none" stroke="black" points="1594,-324 1469,-324 1469,-288 1594,-288 1594,-324"/>
<text text-anchor="middle" x="1531.5" y="-302.3" font-family="Times,serif" font-size="14.00">ns1_record.todo&#45;api</text>
</g>
<!-- [root] ns1_record.todo&#45;api (expand)&#45;&gt;[root] aws_lb.todo (expand) -->
<g id="edge25" class="edge">
<title>[root] ns1_record.todo&#45;api (expand)&#45;&gt;[root] aws_lb.todo (expand)</title>
<path fill="none" stroke="black" d="M1468.79,-296.98C1391.51,-286.98 1256.21,-269.12 1140.5,-252 1122.78,-249.38 1103.42,-246.33 1086.15,-243.54"/>
<polygon fill="black" stroke="black" points="1086.68,-240.08 1076.25,-241.94 1085.56,-246.99 1086.68,-240.08"/>
</g>
<!-- [root] provider[&quot;registry.terraform.io/ns1&#45;terraform/ns1&quot;] -->
<g id="node23" class="node">
<title>[root] provider[&quot;registry.terraform.io/ns1&#45;terraform/ns1&quot;]</title>
<polygon fill="none" stroke="black" points="1554.5,-252 1283.2,-234 1554.5,-216 1825.8,-234 1554.5,-252"/>
<text text-anchor="middle" x="1554.5" y="-230.3" font-family="Times,serif" font-size="14.00">provider[&quot;registry.terraform.io/ns1&#45;terraform/ns1&quot;]</text>
</g>
<!-- [root] ns1_record.todo&#45;api (expand)&#45;&gt;[root] provider[&quot;registry.terraform.io/ns1&#45;terraform/ns1&quot;] -->
<g id="edge26" class="edge">
<title>[root] ns1_record.todo&#45;api (expand)&#45;&gt;[root] provider[&quot;registry.terraform.io/ns1&#45;terraform/ns1&quot;]</title>
<path fill="none" stroke="black" d="M1537.19,-287.7C1539.75,-279.9 1542.83,-270.51 1545.68,-261.83"/>
<polygon fill="black" stroke="black" points="1549.08,-262.7 1548.88,-252.1 1542.43,-260.51 1549.08,-262.7"/>
</g>
<!-- [root] output.bucket_lb_logs_hostname -->
<g id="node16" class="node">
<title>[root] output.bucket_lb_logs_hostname</title>
<polygon fill="none" stroke="black" points="191,-252 0,-252 0,-216 197,-216 197,-246 191,-252"/>
<polyline fill="none" stroke="black" points="191,-252 191,-246"/>
<polyline fill="none" stroke="black" points="197,-246 191,-246"/>
<text text-anchor="middle" x="98.5" y="-230.3" font-family="Times,serif" font-size="14.00">output.bucket_lb_logs_hostname</text>
</g>
<!-- [root] output.bucket_lb_logs_hostname&#45;&gt;[root] aws_s3_bucket.lb_logs (expand) -->
<g id="edge27" class="edge">
<title>[root] output.bucket_lb_logs_hostname&#45;&gt;[root] aws_s3_bucket.lb_logs (expand)</title>
<path fill="none" stroke="black" d="M197.24,-216.54C270.27,-204.37 368.55,-187.99 437.1,-176.57"/>
<polygon fill="black" stroke="black" points="437.71,-180.01 446.99,-174.92 436.56,-173.11 437.71,-180.01"/>
</g>
<!-- [root] output.bucket_lb_logs_region_hostname -->
<g id="node17" class="node">
<title>[root] output.bucket_lb_logs_region_hostname</title>
<polygon fill="none" stroke="black" points="447.5,-252 215.5,-252 215.5,-216 453.5,-216 453.5,-246 447.5,-252"/>
<polyline fill="none" stroke="black" points="447.5,-252 447.5,-246"/>
<polyline fill="none" stroke="black" points="453.5,-246 447.5,-246"/>
<text text-anchor="middle" x="334.5" y="-230.3" font-family="Times,serif" font-size="14.00">output.bucket_lb_logs_region_hostname</text>
</g>
<!-- [root] output.bucket_lb_logs_region_hostname&#45;&gt;[root] aws_s3_bucket.lb_logs (expand) -->
<g id="edge28" class="edge">
<title>[root] output.bucket_lb_logs_region_hostname&#45;&gt;[root] aws_s3_bucket.lb_logs (expand)</title>
<path fill="none" stroke="black" d="M379.51,-215.88C405,-206.18 437.07,-193.98 463.98,-183.74"/>
<polygon fill="black" stroke="black" points="465.53,-186.9 473.63,-180.07 463.04,-180.35 465.53,-186.9"/>
</g>
<!-- [root] output.lb_todo_hostname -->
<g id="node18" class="node">
<title>[root] output.lb_todo_hostname</title>
<polygon fill="none" stroke="black" points="1370,-324 1221,-324 1221,-288 1376,-288 1376,-318 1370,-324"/>
<polyline fill="none" stroke="black" points="1370,-324 1370,-318"/>
<polyline fill="none" stroke="black" points="1376,-318 1370,-318"/>
<text text-anchor="middle" x="1298.5" y="-302.3" font-family="Times,serif" font-size="14.00">output.lb_todo_hostname</text>
</g>
<!-- [root] output.lb_todo_hostname&#45;&gt;[root] aws_lb.todo (expand) -->
<g id="edge29" class="edge">
<title>[root] output.lb_todo_hostname&#45;&gt;[root] aws_lb.todo (expand)</title>
<path fill="none" stroke="black" d="M1234.26,-287.97C1188.76,-275.9 1128.52,-259.93 1086.14,-248.69"/>
<polygon fill="black" stroke="black" points="1086.87,-245.26 1076.31,-246.08 1085.07,-252.03 1086.87,-245.26"/>
</g>
<!-- [root] output.todo_api_hostname -->
<g id="node19" class="node">
<title>[root] output.todo_api_hostname</title>
<polygon fill="none" stroke="black" points="1657,-396 1502,-396 1502,-360 1663,-360 1663,-390 1657,-396"/>
<polyline fill="none" stroke="black" points="1657,-396 1657,-390"/>
<polyline fill="none" stroke="black" points="1663,-390 1657,-390"/>
<text text-anchor="middle" x="1582.5" y="-374.3" font-family="Times,serif" font-size="14.00">output.todo_api_hostname</text>
</g>
<!-- [root] output.todo_api_hostname&#45;&gt;[root] ns1_record.todo&#45;api (expand) -->
<g id="edge30" class="edge">
<title>[root] output.todo_api_hostname&#45;&gt;[root] ns1_record.todo&#45;api (expand)</title>
<path fill="none" stroke="black" d="M1569.89,-359.7C1563.9,-351.47 1556.62,-341.48 1550.02,-332.42"/>
<polygon fill="black" stroke="black" points="1552.68,-330.13 1543.96,-324.1 1547.02,-334.25 1552.68,-330.13"/>
</g>
<!-- [root] output.todo_ips -->
<g id="node20" class="node">
<title>[root] output.todo_ips</title>
<polygon fill="none" stroke="black" points="860,-396 765,-396 765,-360 866,-360 866,-390 860,-396"/>
<polyline fill="none" stroke="black" points="860,-396 860,-390"/>
<polyline fill="none" stroke="black" points="866,-390 860,-390"/>
<text text-anchor="middle" x="815.5" y="-374.3" font-family="Times,serif" font-size="14.00">output.todo_ips</text>
</g>
<!-- [root] output.todo_ips&#45;&gt;[root] aws_instance.todo (expand) -->
<g id="edge31" class="edge">
<title>[root] output.todo_ips&#45;&gt;[root] aws_instance.todo (expand)</title>
<path fill="none" stroke="black" d="M866.19,-361.66C868.99,-361.04 871.77,-360.48 874.5,-360 930.44,-350.08 1345.77,-365.56 1384.5,-324 1395.41,-312.29 1394.05,-300.83 1384.5,-288 1381.01,-283.31 1323.97,-266.74 1275.57,-253.36"/>
<polygon fill="black" stroke="black" points="1276.28,-249.93 1265.71,-250.65 1274.43,-256.68 1276.28,-249.93"/>
</g>
<!-- [root] var.personal_ns1_apikey -->
<g id="node26" class="node">
<title>[root] var.personal_ns1_apikey</title>
<polygon fill="none" stroke="black" points="1658,-180 1513,-180 1513,-144 1664,-144 1664,-174 1658,-180"/>
<polyline fill="none" stroke="black" points="1658,-180 1658,-174"/>
<polyline fill="none" stroke="black" points="1664,-174 1658,-174"/>
<text text-anchor="middle" x="1588.5" y="-158.3" font-family="Times,serif" font-size="14.00">var.personal_ns1_apikey</text>
</g>
<!-- [root] provider[&quot;registry.terraform.io/ns1&#45;terraform/ns1&quot;]&#45;&gt;[root] var.personal_ns1_apikey -->
<g id="edge39" class="edge">
<title>[root] provider[&quot;registry.terraform.io/ns1&#45;terraform/ns1&quot;]&#45;&gt;[root] var.personal_ns1_apikey</title>
<path fill="none" stroke="black" d="M1562.56,-216.41C1566.46,-208.37 1571.25,-198.51 1575.64,-189.47"/>
<polygon fill="black" stroke="black" points="1578.81,-190.97 1580.03,-180.45 1572.51,-187.91 1578.81,-190.97"/>
</g>
<!-- [root] var.aws_profile -->
<g id="node25" class="node">
<title>[root] var.aws_profile</title>
<polygon fill="none" stroke="black" points="979,-396 884,-396 884,-360 985,-360 985,-390 979,-396"/>
<polyline fill="none" stroke="black" points="979,-396 979,-390"/>
<polyline fill="none" stroke="black" points="985,-390 979,-390"/>
<text text-anchor="middle" x="934.5" y="-374.3" font-family="Times,serif" font-size="14.00">var.aws_profile</text>
</g>
<!-- [root] provider[&quot;registry.terraform.io/hashicorp/aws&quot;] (close) -->
<g id="node29" class="node">
<title>[root] provider[&quot;registry.terraform.io/hashicorp/aws&quot;] (close)</title>
<ellipse fill="none" stroke="black" cx="481.5" cy="-378" rx="227.46" ry="18"/>
<text text-anchor="middle" x="481.5" y="-374.3" font-family="Times,serif" font-size="14.00">[root] provider[&quot;registry.terraform.io/hashicorp/aws&quot;] (close)</text>
</g>
<!-- [root] provider[&quot;registry.terraform.io/hashicorp/aws&quot;] (close)&#45;&gt;[root] aws_lb_listener.todo (expand) -->
<g id="edge32" class="edge">
<title>[root] provider[&quot;registry.terraform.io/hashicorp/aws&quot;] (close)&#45;&gt;[root] aws_lb_listener.todo (expand)</title>
<path fill="none" stroke="black" d="M572.82,-361.47C627.46,-351.9 698.51,-338.99 770.31,-324.2"/>
<polygon fill="black" stroke="black" points="771.36,-327.56 780.44,-322.1 769.94,-320.7 771.36,-327.56"/>
</g>
<!-- [root] provider[&quot;registry.terraform.io/hashicorp/aws&quot;] (close)&#45;&gt;[root] aws_lb_target_group_attachment.todo_instance (expand) -->
<g id="edge33" class="edge">
<title>[root] provider[&quot;registry.terraform.io/hashicorp/aws&quot;] (close)&#45;&gt;[root] aws_lb_target_group_attachment.todo_instance (expand)</title>
<path fill="none" stroke="black" d="M600.89,-362.67C692.19,-351.7 818.6,-336.52 916.36,-324.79"/>
<polygon fill="black" stroke="black" points="916.82,-328.26 926.33,-323.59 915.99,-321.31 916.82,-328.26"/>
</g>
<!-- [root] provider[&quot;registry.terraform.io/hashicorp/aws&quot;] (close)&#45;&gt;[root] aws_s3_bucket_acl.example (expand) -->
<g id="edge34" class="edge">
<title>[root] provider[&quot;registry.terraform.io/hashicorp/aws&quot;] (close)&#45;&gt;[root] aws_s3_bucket_acl.example (expand)</title>
<path fill="none" stroke="black" d="M528.21,-360.23C555.54,-350.42 590.26,-337.96 619.23,-327.56"/>
<polygon fill="black" stroke="black" points="620.59,-330.79 628.82,-324.12 618.22,-324.2 620.59,-330.79"/>
</g>
<!-- [root] provider[&quot;registry.terraform.io/hashicorp/aws&quot;] (close)&#45;&gt;[root] aws_s3_bucket_policy.lb_logs (expand) -->
<g id="edge35" class="edge">
<title>[root] provider[&quot;registry.terraform.io/hashicorp/aws&quot;] (close)&#45;&gt;[root] aws_s3_bucket_policy.lb_logs (expand)</title>
<path fill="none" stroke="black" d="M428.42,-360.41C396.5,-350.44 355.67,-337.68 321.92,-327.13"/>
<polygon fill="black" stroke="black" points="322.74,-323.72 312.15,-324.08 320.65,-330.4 322.74,-323.72"/>
</g>
<!-- [root] provider[&quot;registry.terraform.io/hashicorp/aws&quot;] (close)&#45;&gt;[root] aws_s3_bucket_versioning.lb_logs (expand) -->
<g id="edge36" class="edge">
<title>[root] provider[&quot;registry.terraform.io/hashicorp/aws&quot;] (close)&#45;&gt;[root] aws_s3_bucket_versioning.lb_logs (expand)</title>
<path fill="none" stroke="black" d="M478.53,-359.7C477.21,-351.98 475.62,-342.71 474.15,-334.11"/>
<polygon fill="black" stroke="black" points="477.57,-333.37 472.43,-324.1 470.67,-334.55 477.57,-333.37"/>
</g>
<!-- [root] provider[&quot;registry.terraform.io/hashicorp/external&quot;] (close) -->
<g id="node30" class="node">
<title>[root] provider[&quot;registry.terraform.io/hashicorp/external&quot;] (close)</title>
<ellipse fill="none" stroke="black" cx="2123.5" cy="-234" rx="241.56" ry="18"/>
<text text-anchor="middle" x="2123.5" y="-230.3" font-family="Times,serif" font-size="14.00">[root] provider[&quot;registry.terraform.io/hashicorp/external&quot;] (close)</text>
</g>
<!-- [root] provider[&quot;registry.terraform.io/hashicorp/external&quot;] (close)&#45;&gt;[root] data.external.public_ip (expand) -->
<g id="edge37" class="edge">
<title>[root] provider[&quot;registry.terraform.io/hashicorp/external&quot;] (close)&#45;&gt;[root] data.external.public_ip (expand)</title>
<path fill="none" stroke="black" d="M2105.89,-215.87C2080.13,-190.82 2032.05,-144.05 2002.59,-115.41"/>
<polygon fill="black" stroke="black" points="2004.78,-112.65 1995.17,-108.19 1999.9,-117.67 2004.78,-112.65"/>
</g>
<!-- [root] provider[&quot;registry.terraform.io/ns1&#45;terraform/ns1&quot;] (close) -->
<g id="node31" class="node">
<title>[root] provider[&quot;registry.terraform.io/ns1&#45;terraform/ns1&quot;] (close)</title>
<ellipse fill="none" stroke="black" cx="1243.5" cy="-378" rx="240.46" ry="18"/>
<text text-anchor="middle" x="1243.5" y="-374.3" font-family="Times,serif" font-size="14.00">[root] provider[&quot;registry.terraform.io/ns1&#45;terraform/ns1&quot;] (close)</text>
</g>
<!-- [root] provider[&quot;registry.terraform.io/ns1&#45;terraform/ns1&quot;] (close)&#45;&gt;[root] ns1_record.todo&#45;api (expand) -->
<g id="edge38" class="edge">
<title>[root] provider[&quot;registry.terraform.io/ns1&#45;terraform/ns1&quot;] (close)&#45;&gt;[root] ns1_record.todo&#45;api (expand)</title>
<path fill="none" stroke="black" d="M1310.66,-360.68C1355.1,-349.87 1413.35,-335.72 1458.87,-324.65"/>
<polygon fill="black" stroke="black" points="1459.79,-328.03 1468.68,-322.27 1458.13,-321.23 1459.79,-328.03"/>
</g>
<!-- [root] provider[&quot;terraform.io/builtin/terraform&quot;] (close) -->
<g id="node32" class="node">
<title>[root] provider[&quot;terraform.io/builtin/terraform&quot;] (close)</title>
<ellipse fill="none" stroke="black" cx="1888.5" cy="-378" rx="207.16" ry="18"/>
<text text-anchor="middle" x="1888.5" y="-374.3" font-family="Times,serif" font-size="14.00">[root] provider[&quot;terraform.io/builtin/terraform&quot;] (close)</text>
</g>
<!-- [root] provider[&quot;terraform.io/builtin/terraform&quot;] (close)&#45;&gt;[root] data.terraform_remote_state.training_account (expand) -->
<g id="edge40" class="edge">
<title>[root] provider[&quot;terraform.io/builtin/terraform&quot;] (close)&#45;&gt;[root] data.terraform_remote_state.training_account (expand)</title>
<path fill="none" stroke="black" d="M1887.19,-359.7C1883.89,-327.52 1872.54,-257.92 1834.5,-216 1781.82,-157.95 1748.48,-166.87 1673.5,-144 1621.3,-128.08 1562.53,-116.46 1510.56,-108.24"/>
<polygon fill="black" stroke="black" points="1511.02,-104.76 1500.6,-106.69 1509.94,-111.68 1511.02,-104.76"/>
</g>
<!-- [root] root -->
<g id="node33" class="node">
<title>[root] root</title>
<ellipse fill="none" stroke="black" cx="874.5" cy="-450" rx="47.39" ry="18"/>
<text text-anchor="middle" x="874.5" y="-446.3" font-family="Times,serif" font-size="14.00">[root] root</text>
</g>
<!-- [root] root&#45;&gt;[root] output.bucket_lb_logs_hostname -->
<g id="edge41" class="edge">
<title>[root] root&#45;&gt;[root] output.bucket_lb_logs_hostname</title>
<path fill="none" stroke="black" d="M827.12,-448.16C678.33,-445.15 227.04,-433.04 173.5,-396 128.49,-364.87 109.84,-299.52 102.64,-262.36"/>
<polygon fill="black" stroke="black" points="106.03,-261.47 100.82,-252.24 99.14,-262.7 106.03,-261.47"/>
</g>
<!-- [root] root&#45;&gt;[root] output.bucket_lb_logs_region_hostname -->
<g id="edge42" class="edge">
<title>[root] root&#45;&gt;[root] output.bucket_lb_logs_region_hostname</title>
<path fill="none" stroke="black" d="M827.13,-448.62C699.51,-447.02 351.01,-438.74 245.5,-396 188.11,-372.75 120.53,-337.67 157.5,-288 167.52,-274.53 198.94,-263.22 232.58,-254.55"/>
<polygon fill="black" stroke="black" points="233.73,-257.87 242.59,-252.06 232.04,-251.08 233.73,-257.87"/>
</g>
<!-- [root] root&#45;&gt;[root] output.lb_todo_hostname -->
<g id="edge43" class="edge">
<title>[root] root&#45;&gt;[root] output.lb_todo_hostname</title>
<path fill="none" stroke="black" d="M831.91,-442.06C805.03,-435.24 772.31,-421.89 755.5,-396 746.79,-382.58 744.64,-371.75 755.5,-360 788.41,-324.39 1127.78,-330.23 1210.67,-323.68"/>
<polygon fill="black" stroke="black" points="1211.19,-327.14 1220.79,-322.64 1210.48,-320.18 1211.19,-327.14"/>
</g>
<!-- [root] root&#45;&gt;[root] output.todo_api_hostname -->
<g id="edge44" class="edge">
<title>[root] root&#45;&gt;[root] output.todo_api_hostname</title>
<path fill="none" stroke="black" d="M921.19,-446.61C1022.96,-441.06 1272.48,-425.56 1491.53,-396.05"/>
<polygon fill="black" stroke="black" points="1492.17,-399.49 1501.61,-394.68 1491.23,-392.56 1492.17,-399.49"/>
</g>
<!-- [root] root&#45;&gt;[root] output.todo_ips -->
<g id="edge45" class="edge">
<title>[root] root&#45;&gt;[root] output.todo_ips</title>
<path fill="none" stroke="black" d="M860.82,-432.76C853.58,-424.18 844.55,-413.46 836.45,-403.86"/>
<polygon fill="black" stroke="black" points="839.05,-401.51 829.93,-396.12 833.7,-406.03 839.05,-401.51"/>
</g>
<!-- [root] root&#45;&gt;[root] var.aws_profile -->
<g id="edge50" class="edge">
<title>[root] root&#45;&gt;[root] var.aws_profile</title>
<path fill="none" stroke="black" d="M888.42,-432.76C895.77,-424.18 904.96,-413.46 913.19,-403.86"/>
<polygon fill="black" stroke="black" points="915.97,-405.99 919.82,-396.12 910.66,-401.44 915.97,-405.99"/>
</g>
<!-- [root] root&#45;&gt;[root] provider[&quot;registry.terraform.io/hashicorp/aws&quot;] (close) -->
<g id="edge46" class="edge">
<title>[root] root&#45;&gt;[root] provider[&quot;registry.terraform.io/hashicorp/aws&quot;] (close)</title>
<path fill="none" stroke="black" d="M832.44,-441.51C772.53,-430.84 660.88,-410.95 579.55,-396.46"/>
<polygon fill="black" stroke="black" points="579.75,-392.95 569.29,-394.64 578.52,-399.84 579.75,-392.95"/>
</g>
<!-- [root] root&#45;&gt;[root] provider[&quot;registry.terraform.io/hashicorp/external&quot;] (close) -->
<g id="edge47" class="edge">
<title>[root] root&#45;&gt;[root] provider[&quot;registry.terraform.io/hashicorp/external&quot;] (close)</title>
<path fill="none" stroke="black" d="M921.93,-448.66C1142.66,-446.86 2060.42,-436.92 2104.5,-396 2140.92,-362.19 2136.14,-298.43 2129.67,-262.12"/>
<polygon fill="black" stroke="black" points="2133.09,-261.37 2127.74,-252.22 2126.22,-262.7 2133.09,-261.37"/>
</g>
<!-- [root] root&#45;&gt;[root] provider[&quot;registry.terraform.io/ns1&#45;terraform/ns1&quot;] (close) -->
<g id="edge48" class="edge">
<title>[root] root&#45;&gt;[root] provider[&quot;registry.terraform.io/ns1&#45;terraform/ns1&quot;] (close)</title>
<path fill="none" stroke="black" d="M916.11,-441.11C972.39,-430.43 1074.38,-411.08 1149.61,-396.81"/>
<polygon fill="black" stroke="black" points="1150.41,-400.22 1159.58,-394.92 1149.1,-393.34 1150.41,-400.22"/>
</g>
<!-- [root] root&#45;&gt;[root] provider[&quot;terraform.io/builtin/terraform&quot;] (close) -->
<g id="edge49" class="edge">
<title>[root] root&#45;&gt;[root] provider[&quot;terraform.io/builtin/terraform&quot;] (close)</title>
<path fill="none" stroke="black" d="M920.84,-446.12C1043.51,-438.46 1386.88,-416.72 1672.5,-396 1691.76,-394.6 1711.98,-393.08 1731.99,-391.54"/>
<polygon fill="black" stroke="black" points="1732.42,-395.02 1742.12,-390.76 1731.88,-388.04 1732.42,-395.02"/>
</g>
</g>
</svg>
