<?xml version="1.0" encoding="UTF-8" standalone="no"?>
<!DOCTYPE svg PUBLIC "-//W3C//DTD SVG 1.1//EN"
 "http://www.w3.org/Graphics/SVG/1.1/DTD/svg11.dtd">
<!-- Generated by graphviz version 2.43.0 (0)
 -->
<!-- Title: %3 Pages: 1 -->
<svg width="2056pt" height="548pt"
 viewBox="0.00 0.00 2056.29 548.00" xmlns="http://www.w3.org/2000/svg" xmlns:xlink="http://www.w3.org/1999/xlink">
<g id="graph0" class="graph" transform="scale(1 1) rotate(0) translate(4 544)">
<title>%3</title>
<polygon fill="white" stroke="transparent" points="-4,4 -4,-544 2052.29,-544 2052.29,4 -4,4"/>
<!-- [root] aws_instance.todo -->
<g id="node1" class="node">
<title>[root] aws_instance.todo</title>
<polygon fill="none" stroke="black" points="1540.93,-324 1421.87,-324 1421.87,-288 1540.93,-288 1540.93,-324"/>
<text text-anchor="middle" x="1481.4" y="-301.8" font-family="Times,serif" font-size="14.00">aws_instance.todo</text>
</g>
<!-- [root] aws_key_pair.deployer -->
<g id="node2" class="node">
<title>[root] aws_key_pair.deployer</title>
<polygon fill="none" stroke="black" points="1213.37,-252 1067.44,-252 1067.44,-216 1213.37,-216 1213.37,-252"/>
<text text-anchor="middle" x="1140.4" y="-229.8" font-family="Times,serif" font-size="14.00">aws_key_pair.deployer</text>
</g>
<!-- [root] aws_instance.todo&#45;&gt;[root] aws_key_pair.deployer -->
<g id="edge1" class="edge">
<title>[root] aws_instance.todo&#45;&gt;[root] aws_key_pair.deployer</title>
<path fill="none" stroke="black" d="M1421.61,-292.73C1366.61,-281.44 1284.52,-264.58 1223.21,-252"/>
<polygon fill="black" stroke="black" points="1223.68,-248.52 1213.18,-249.94 1222.27,-255.38 1223.68,-248.52"/>
</g>
<!-- [root] aws_security_group.instances -->
<g id="node9" class="node">
<title>[root] aws_security_group.instances</title>
<polygon fill="none" stroke="black" points="1456.97,-252 1273.83,-252 1273.83,-216 1456.97,-216 1456.97,-252"/>
<text text-anchor="middle" x="1365.4" y="-229.8" font-family="Times,serif" font-size="14.00">aws_security_group.instances</text>
</g>
<!-- [root] aws_instance.todo&#45;&gt;[root] aws_security_group.instances -->
<g id="edge2" class="edge">
<title>[root] aws_instance.todo&#45;&gt;[root] aws_security_group.instances</title>
<path fill="none" stroke="black" d="M1453.03,-287.88C1437.86,-278.72 1419,-267.34 1402.66,-257.48"/>
<polygon fill="black" stroke="black" points="1404.26,-254.36 1393.89,-252.19 1400.64,-260.35 1404.26,-254.36"/>
</g>
<!-- [root] provisioner.file -->
<g id="node27" class="node">
<title>[root] provisioner.file</title>
<ellipse fill="none" stroke="black" cx="1561.4" cy="-234" rx="85.52" ry="18"/>
<text text-anchor="middle" x="1561.4" y="-229.8" font-family="Times,serif" font-size="14.00">[root] provisioner.file</text>
</g>
<!-- [root] aws_instance.todo&#45;&gt;[root] provisioner.file -->
<g id="edge3" class="edge">
<title>[root] aws_instance.todo&#45;&gt;[root] provisioner.file</title>
<path fill="none" stroke="black" d="M1501.18,-287.7C1511.3,-278.84 1523.78,-267.92 1534.74,-258.33"/>
<polygon fill="black" stroke="black" points="1537.18,-260.84 1542.4,-251.62 1532.57,-255.57 1537.18,-260.84"/>
</g>
<!-- [root] provisioner.remote&#45;exec -->
<g id="node28" class="node">
<title>[root] provisioner.remote&#45;exec</title>
<ellipse fill="none" stroke="black" cx="1783.4" cy="-234" rx="118.31" ry="18"/>
<text text-anchor="middle" x="1783.4" y="-229.8" font-family="Times,serif" font-size="14.00">[root] provisioner.remote&#45;exec</text>
</g>
<!-- [root] aws_instance.todo&#45;&gt;[root] provisioner.remote&#45;exec -->
<g id="edge4" class="edge">
<title>[root] aws_instance.todo&#45;&gt;[root] provisioner.remote&#45;exec</title>
<path fill="none" stroke="black" d="M1541.07,-291.17C1590.08,-279.81 1659.66,-263.68 1711.69,-251.62"/>
<polygon fill="black" stroke="black" points="1712.57,-255.01 1721.53,-249.34 1710.99,-248.19 1712.57,-255.01"/>
</g>
<!-- [root] provider.aws -->
<g id="node19" class="node">
<title>[root] provider.aws</title>
<polygon fill="none" stroke="black" points="926.4,-108 847.79,-90 926.4,-72 1005.01,-90 926.4,-108"/>
<text text-anchor="middle" x="926.4" y="-85.8" font-family="Times,serif" font-size="14.00">provider.aws</text>
</g>
<!-- [root] aws_key_pair.deployer&#45;&gt;[root] provider.aws -->
<g id="edge5" class="edge">
<title>[root] aws_key_pair.deployer&#45;&gt;[root] provider.aws</title>
<path fill="none" stroke="black" d="M1109.14,-215.83C1092.36,-206.1 1071.64,-193.25 1054.4,-180 1035.96,-165.82 1034.99,-157.99 1016.4,-144 998.14,-130.26 976.05,-117.2 958.32,-107.48"/>
<polygon fill="black" stroke="black" points="959.96,-104.39 949.49,-102.72 956.63,-110.55 959.96,-104.39"/>
</g>
<!-- [root] var.ssh_public_key_path -->
<g id="node26" class="node">
<title>[root] var.ssh_public_key_path</title>
<polygon fill="none" stroke="black" points="1211.72,-180 1063.08,-180 1063.08,-144 1217.72,-144 1217.72,-174 1211.72,-180"/>
<polyline fill="none" stroke="black" points="1211.72,-180 1211.72,-174 "/>
<polyline fill="none" stroke="black" points="1217.72,-174 1211.72,-174 "/>
<text text-anchor="middle" x="1140.4" y="-157.8" font-family="Times,serif" font-size="14.00">var.ssh_public_key_path</text>
</g>
<!-- [root] aws_key_pair.deployer&#45;&gt;[root] var.ssh_public_key_path -->
<g id="edge6" class="edge">
<title>[root] aws_key_pair.deployer&#45;&gt;[root] var.ssh_public_key_path</title>
<path fill="none" stroke="black" d="M1140.4,-215.7C1140.4,-207.98 1140.4,-198.71 1140.4,-190.11"/>
<polygon fill="black" stroke="black" points="1143.9,-190.1 1140.4,-180.1 1136.9,-190.1 1143.9,-190.1"/>
</g>
<!-- [root] aws_lb.todo -->
<g id="node3" class="node">
<title>[root] aws_lb.todo</title>
<polygon fill="none" stroke="black" points="690.45,-252 606.35,-252 606.35,-216 690.45,-216 690.45,-252"/>
<text text-anchor="middle" x="648.4" y="-229.8" font-family="Times,serif" font-size="14.00">aws_lb.todo</text>
</g>
<!-- [root] aws_s3_bucket.lb_logs -->
<g id="node7" class="node">
<title>[root] aws_s3_bucket.lb_logs</title>
<polygon fill="none" stroke="black" points="623.67,-180 477.14,-180 477.14,-144 623.67,-144 623.67,-180"/>
<text text-anchor="middle" x="550.4" y="-157.8" font-family="Times,serif" font-size="14.00">aws_s3_bucket.lb_logs</text>
</g>
<!-- [root] aws_lb.todo&#45;&gt;[root] aws_s3_bucket.lb_logs -->
<g id="edge7" class="edge">
<title>[root] aws_lb.todo&#45;&gt;[root] aws_s3_bucket.lb_logs</title>
<path fill="none" stroke="black" d="M624.43,-215.88C611.85,-206.89 596.27,-195.76 582.65,-186.03"/>
<polygon fill="black" stroke="black" points="584.64,-183.15 574.47,-180.19 580.57,-188.85 584.64,-183.15"/>
</g>
<!-- [root] aws_security_group.public_lb -->
<g id="node10" class="node">
<title>[root] aws_security_group.public_lb</title>
<polygon fill="none" stroke="black" points="827.04,-180 641.77,-180 641.77,-144 827.04,-144 827.04,-180"/>
<text text-anchor="middle" x="734.4" y="-157.8" font-family="Times,serif" font-size="14.00">aws_security_group.public_lb</text>
</g>
<!-- [root] aws_lb.todo&#45;&gt;[root] aws_security_group.public_lb -->
<g id="edge8" class="edge">
<title>[root] aws_lb.todo&#45;&gt;[root] aws_security_group.public_lb</title>
<path fill="none" stroke="black" d="M669.66,-215.7C680.49,-206.88 693.82,-196.03 705.56,-186.47"/>
<polygon fill="black" stroke="black" points="707.84,-189.13 713.39,-180.1 703.42,-183.7 707.84,-189.13"/>
</g>
<!-- [root] aws_lb_listener.todo -->
<g id="node4" class="node">
<title>[root] aws_lb_listener.todo</title>
<polygon fill="none" stroke="black" points="821.4,-396 689.41,-396 689.41,-360 821.4,-360 821.4,-396"/>
<text text-anchor="middle" x="755.4" y="-373.8" font-family="Times,serif" font-size="14.00">aws_lb_listener.todo</text>
</g>
<!-- [root] aws_lb_listener.todo&#45;&gt;[root] aws_lb.todo -->
<g id="edge9" class="edge">
<title>[root] aws_lb_listener.todo&#45;&gt;[root] aws_lb.todo</title>
<path fill="none" stroke="black" d="M755.66,-360C755.14,-340.81 751.72,-309.48 736.4,-288 727.06,-274.9 713.37,-264.45 699.56,-256.41"/>
<polygon fill="black" stroke="black" points="700.96,-253.19 690.51,-251.47 697.61,-259.33 700.96,-253.19"/>
</g>
<!-- [root] aws_lb_target_group.todo -->
<g id="node5" class="node">
<title>[root] aws_lb_target_group.todo</title>
<polygon fill="none" stroke="black" points="1007.74,-180 845.06,-180 845.06,-144 1007.74,-144 1007.74,-180"/>
<text text-anchor="middle" x="926.4" y="-157.8" font-family="Times,serif" font-size="14.00">aws_lb_target_group.todo</text>
</g>
<!-- [root] aws_lb_listener.todo&#45;&gt;[root] aws_lb_target_group.todo -->
<g id="edge10" class="edge">
<title>[root] aws_lb_listener.todo&#45;&gt;[root] aws_lb_target_group.todo</title>
<path fill="none" stroke="black" d="M769.11,-359.85C799.19,-322.21 871.11,-232.2 906.3,-188.15"/>
<polygon fill="black" stroke="black" points="909.12,-190.23 912.63,-180.23 903.66,-185.86 909.12,-190.23"/>
</g>
<!-- [root] data.terraform_remote_state.training_account -->
<g id="node12" class="node">
<title>[root] data.terraform_remote_state.training_account</title>
<polygon fill="none" stroke="black" points="1356.18,-108 1084.63,-108 1084.63,-72 1356.18,-72 1356.18,-108"/>
<text text-anchor="middle" x="1220.4" y="-85.8" font-family="Times,serif" font-size="14.00">data.terraform_remote_state.training_account</text>
</g>
<!-- [root] aws_lb_target_group.todo&#45;&gt;[root] data.terraform_remote_state.training_account -->
<g id="edge11" class="edge">
<title>[root] aws_lb_target_group.todo&#45;&gt;[root] data.terraform_remote_state.training_account</title>
<path fill="none" stroke="black" d="M997.95,-143.97C1040.53,-133.83 1094.71,-120.93 1138.94,-110.4"/>
<polygon fill="black" stroke="black" points="1139.87,-113.77 1148.79,-108.05 1138.25,-106.96 1139.87,-113.77"/>
</g>
<!-- [root] aws_lb_target_group.todo&#45;&gt;[root] provider.aws -->
<g id="edge12" class="edge">
<title>[root] aws_lb_target_group.todo&#45;&gt;[root] provider.aws</title>
<path fill="none" stroke="black" d="M926.4,-143.7C926.4,-135.98 926.4,-126.71 926.4,-118.11"/>
<polygon fill="black" stroke="black" points="929.9,-118.1 926.4,-108.1 922.9,-118.1 929.9,-118.1"/>
</g>
<!-- [root] aws_lb_target_group_attachment.todo_instance -->
<g id="node6" class="node">
<title>[root] aws_lb_target_group_attachment.todo_instance</title>
<polygon fill="none" stroke="black" points="1449.02,-396 1165.78,-396 1165.78,-360 1449.02,-360 1449.02,-396"/>
<text text-anchor="middle" x="1307.4" y="-373.8" font-family="Times,serif" font-size="14.00">aws_lb_target_group_attachment.todo_instance</text>
</g>
<!-- [root] aws_lb_target_group_attachment.todo_instance&#45;&gt;[root] aws_instance.todo -->
<g id="edge13" class="edge">
<title>[root] aws_lb_target_group_attachment.todo_instance&#45;&gt;[root] aws_instance.todo</title>
<path fill="none" stroke="black" d="M1349.97,-359.88C1373.97,-350.22 1404.13,-338.09 1429.51,-327.88"/>
<polygon fill="black" stroke="black" points="1431,-331.05 1438.97,-324.07 1428.39,-324.55 1431,-331.05"/>
</g>
<!-- [root] aws_lb_target_group_attachment.todo_instance&#45;&gt;[root] aws_lb_target_group.todo -->
<g id="edge14" class="edge">
<title>[root] aws_lb_target_group_attachment.todo_instance&#45;&gt;[root] aws_lb_target_group.todo</title>
<path fill="none" stroke="black" d="M1226.91,-359.99C1195.45,-351.58 1159.72,-339.78 1129.4,-324 1057.81,-286.73 986.85,-222.61 950.81,-187.59"/>
<polygon fill="black" stroke="black" points="952.83,-184.68 943.24,-180.17 947.93,-189.67 952.83,-184.68"/>
</g>
<!-- [root] aws_s3_bucket.lb_logs&#45;&gt;[root] provider.aws -->
<g id="edge15" class="edge">
<title>[root] aws_s3_bucket.lb_logs&#45;&gt;[root] provider.aws</title>
<path fill="none" stroke="black" d="M623.7,-145.71C626.64,-145.12 629.55,-144.55 632.4,-144 716.7,-127.67 814.93,-110.29 873.81,-100.05"/>
<polygon fill="black" stroke="black" points="874.73,-103.45 883.98,-98.29 873.53,-96.55 874.73,-103.45"/>
</g>
<!-- [root] aws_s3_bucket_policy.lb_logs -->
<g id="node8" class="node">
<title>[root] aws_s3_bucket_policy.lb_logs</title>
<polygon fill="none" stroke="black" points="1148.25,-396 960.55,-396 960.55,-360 1148.25,-360 1148.25,-396"/>
<text text-anchor="middle" x="1054.4" y="-373.8" font-family="Times,serif" font-size="14.00">aws_s3_bucket_policy.lb_logs</text>
</g>
<!-- [root] aws_s3_bucket_policy.lb_logs&#45;&gt;[root] aws_s3_bucket.lb_logs -->
<g id="edge16" class="edge">
<title>[root] aws_s3_bucket_policy.lb_logs&#45;&gt;[root] aws_s3_bucket.lb_logs</title>
<path fill="none" stroke="black" d="M1019.31,-359.89C956.07,-329.34 818.47,-264.08 699.4,-216 670.83,-204.46 638.68,-192.86 611.57,-183.46"/>
<polygon fill="black" stroke="black" points="612.43,-180.05 601.83,-180.1 610.14,-186.67 612.43,-180.05"/>
</g>
<!-- [root] data.external.public_ip -->
<g id="node11" class="node">
<title>[root] data.external.public_ip</title>
<polygon fill="none" stroke="black" points="1550.69,-180 1406.12,-180 1406.12,-144 1550.69,-144 1550.69,-180"/>
<text text-anchor="middle" x="1478.4" y="-157.8" font-family="Times,serif" font-size="14.00">data.external.public_ip</text>
</g>
<!-- [root] aws_security_group.instances&#45;&gt;[root] data.external.public_ip -->
<g id="edge17" class="edge">
<title>[root] aws_security_group.instances&#45;&gt;[root] data.external.public_ip</title>
<path fill="none" stroke="black" d="M1393.04,-215.88C1407.82,-206.72 1426.19,-195.34 1442.1,-185.48"/>
<polygon fill="black" stroke="black" points="1443.99,-188.43 1450.65,-180.19 1440.31,-182.48 1443.99,-188.43"/>
</g>
<!-- [root] aws_security_group.instances&#45;&gt;[root] data.terraform_remote_state.training_account -->
<g id="edge18" class="edge">
<title>[root] aws_security_group.instances&#45;&gt;[root] data.terraform_remote_state.training_account</title>
<path fill="none" stroke="black" d="M1359.98,-215.71C1353.15,-196.26 1339.79,-164.69 1319.4,-144 1306.76,-131.17 1290.35,-120.7 1274.54,-112.56"/>
<polygon fill="black" stroke="black" points="1275.85,-109.3 1265.34,-108.03 1272.76,-115.59 1275.85,-109.3"/>
</g>
<!-- [root] aws_security_group.instances&#45;&gt;[root] provider.aws -->
<g id="edge19" class="edge">
<title>[root] aws_security_group.instances&#45;&gt;[root] provider.aws</title>
<path fill="none" stroke="black" d="M1344.7,-215.97C1318.73,-195.54 1272.05,-161.82 1226.4,-144 1183.23,-127.15 1058.57,-108.53 984.22,-98.46"/>
<polygon fill="black" stroke="black" points="984.46,-94.96 974.08,-97.1 983.53,-101.9 984.46,-94.96"/>
</g>
<!-- [root] aws_security_group.public_lb&#45;&gt;[root] data.terraform_remote_state.training_account -->
<g id="edge20" class="edge">
<title>[root] aws_security_group.public_lb&#45;&gt;[root] data.terraform_remote_state.training_account</title>
<path fill="none" stroke="black" d="M827.22,-145.42C830.32,-144.93 833.38,-144.46 836.4,-144 917.1,-131.71 1007.53,-119.17 1080.36,-109.37"/>
<polygon fill="black" stroke="black" points="1081.07,-112.81 1090.52,-108.01 1080.14,-105.87 1081.07,-112.81"/>
</g>
<!-- [root] aws_security_group.public_lb&#45;&gt;[root] provider.aws -->
<g id="edge21" class="edge">
<title>[root] aws_security_group.public_lb&#45;&gt;[root] provider.aws</title>
<path fill="none" stroke="black" d="M781.37,-143.88C814.13,-131.93 857.3,-116.19 888,-105"/>
<polygon fill="black" stroke="black" points="889.3,-108.25 897.5,-101.54 886.91,-101.67 889.3,-108.25"/>
</g>
<!-- [root] provider.external -->
<g id="node20" class="node">
<title>[root] provider.external</title>
<polygon fill="none" stroke="black" points="1478.4,-108 1379.15,-90 1478.4,-72 1577.66,-90 1478.4,-108"/>
<text text-anchor="middle" x="1478.4" y="-85.8" font-family="Times,serif" font-size="14.00">provider.external</text>
</g>
<!-- [root] data.external.public_ip&#45;&gt;[root] provider.external -->
<g id="edge22" class="edge">
<title>[root] data.external.public_ip&#45;&gt;[root] provider.external</title>
<path fill="none" stroke="black" d="M1478.4,-143.7C1478.4,-135.98 1478.4,-126.71 1478.4,-118.11"/>
<polygon fill="black" stroke="black" points="1481.9,-118.1 1478.4,-108.1 1474.9,-118.1 1481.9,-118.1"/>
</g>
<!-- [root] provider.terraform -->
<g id="node22" class="node">
<title>[root] provider.terraform</title>
<polygon fill="none" stroke="black" points="1220.4,-36 1114.26,-18 1220.4,0 1326.54,-18 1220.4,-36"/>
<text text-anchor="middle" x="1220.4" y="-13.8" font-family="Times,serif" font-size="14.00">provider.terraform</text>
</g>
<!-- [root] data.terraform_remote_state.training_account&#45;&gt;[root] provider.terraform -->
<g id="edge23" class="edge">
<title>[root] data.terraform_remote_state.training_account&#45;&gt;[root] provider.terraform</title>
<path fill="none" stroke="black" d="M1220.4,-71.7C1220.4,-63.98 1220.4,-54.71 1220.4,-46.11"/>
<polygon fill="black" stroke="black" points="1223.9,-46.1 1220.4,-36.1 1216.9,-46.1 1223.9,-46.1"/>
</g>
<!-- [root] ns1_record.todo&#45;api -->
<g id="node13" class="node">
<title>[root] ns1_record.todo&#45;api</title>
<polygon fill="none" stroke="black" points="141.76,-324 13.05,-324 13.05,-288 141.76,-288 141.76,-324"/>
<text text-anchor="middle" x="77.4" y="-301.8" font-family="Times,serif" font-size="14.00">ns1_record.todo&#45;api</text>
</g>
<!-- [root] ns1_record.todo&#45;api&#45;&gt;[root] aws_lb.todo -->
<g id="edge34" class="edge">
<title>[root] ns1_record.todo&#45;api&#45;&gt;[root] aws_lb.todo</title>
<path fill="none" stroke="black" d="M141.79,-289.48C144.69,-288.95 147.57,-288.45 150.4,-288 335,-258.73 384.56,-279.72 569.4,-252 578.17,-250.69 587.43,-248.98 596.39,-247.17"/>
<polygon fill="black" stroke="black" points="597.28,-250.55 606.35,-245.08 595.85,-243.7 597.28,-250.55"/>
</g>
<!-- [root] provider.ns1 -->
<g id="node21" class="node">
<title>[root] provider.ns1</title>
<polygon fill="none" stroke="black" points="77.4,-252 0.95,-234 77.4,-216 153.86,-234 77.4,-252"/>
<text text-anchor="middle" x="77.4" y="-229.8" font-family="Times,serif" font-size="14.00">provider.ns1</text>
</g>
<!-- [root] ns1_record.todo&#45;api&#45;&gt;[root] provider.ns1 -->
<g id="edge35" class="edge">
<title>[root] ns1_record.todo&#45;api&#45;&gt;[root] provider.ns1</title>
<path fill="none" stroke="black" d="M77.4,-287.7C77.4,-279.98 77.4,-270.71 77.4,-262.11"/>
<polygon fill="black" stroke="black" points="80.9,-262.1 77.4,-252.1 73.9,-262.1 80.9,-262.1"/>
</g>
<!-- [root] output.bucket_lb_logs_hostname -->
<g id="node14" class="node">
<title>[root] output.bucket_lb_logs_hostname</title>
<polygon fill="none" stroke="black" points="554.38,-252 358.42,-252 358.42,-216 560.38,-216 560.38,-246 554.38,-252"/>
<polyline fill="none" stroke="black" points="554.38,-252 554.38,-246 "/>
<polyline fill="none" stroke="black" points="560.38,-246 554.38,-246 "/>
<text text-anchor="middle" x="459.4" y="-229.8" font-family="Times,serif" font-size="14.00">output.bucket_lb_logs_hostname</text>
</g>
<!-- [root] output.bucket_lb_logs_hostname&#45;&gt;[root] aws_s3_bucket.lb_logs -->
<g id="edge36" class="edge">
<title>[root] output.bucket_lb_logs_hostname&#45;&gt;[root] aws_s3_bucket.lb_logs</title>
<path fill="none" stroke="black" d="M481.9,-215.7C493.36,-206.88 507.46,-196.03 519.89,-186.47"/>
<polygon fill="black" stroke="black" points="522.37,-188.98 528.17,-180.1 518.11,-183.43 522.37,-188.98"/>
</g>
<!-- [root] output.bucket_lb_logs_region_hostname -->
<g id="node15" class="node">
<title>[root] output.bucket_lb_logs_region_hostname</title>
<polygon fill="none" stroke="black" points="397.65,-324 159.16,-324 159.16,-288 403.65,-288 403.65,-318 397.65,-324"/>
<polyline fill="none" stroke="black" points="397.65,-324 397.65,-318 "/>
<polyline fill="none" stroke="black" points="403.65,-318 397.65,-318 "/>
<text text-anchor="middle" x="281.4" y="-301.8" font-family="Times,serif" font-size="14.00">output.bucket_lb_logs_region_hostname</text>
</g>
<!-- [root] output.bucket_lb_logs_region_hostname&#45;&gt;[root] aws_s3_bucket.lb_logs -->
<g id="edge37" class="edge">
<title>[root] output.bucket_lb_logs_region_hostname&#45;&gt;[root] aws_s3_bucket.lb_logs</title>
<path fill="none" stroke="black" d="M289.96,-287.83C300.94,-267.57 321.9,-234.34 349.4,-216 384.13,-192.84 428.51,-179.79 466.73,-172.44"/>
<polygon fill="black" stroke="black" points="467.6,-175.84 476.81,-170.61 466.35,-168.95 467.6,-175.84"/>
</g>
<!-- [root] output.lb_todo_hostname -->
<g id="node16" class="node">
<title>[root] output.lb_todo_hostname</title>
<polygon fill="none" stroke="black" points="721.62,-324 569.19,-324 569.19,-288 727.62,-288 727.62,-318 721.62,-324"/>
<polyline fill="none" stroke="black" points="721.62,-324 721.62,-318 "/>
<polyline fill="none" stroke="black" points="727.62,-318 721.62,-318 "/>
<text text-anchor="middle" x="648.4" y="-301.8" font-family="Times,serif" font-size="14.00">output.lb_todo_hostname</text>
</g>
<!-- [root] output.lb_todo_hostname&#45;&gt;[root] aws_lb.todo -->
<g id="edge38" class="edge">
<title>[root] output.lb_todo_hostname&#45;&gt;[root] aws_lb.todo</title>
<path fill="none" stroke="black" d="M648.4,-287.7C648.4,-279.98 648.4,-270.71 648.4,-262.11"/>
<polygon fill="black" stroke="black" points="651.9,-262.1 648.4,-252.1 644.9,-262.1 651.9,-262.1"/>
</g>
<!-- [root] output.todo_api_hostname -->
<g id="node17" class="node">
<title>[root] output.todo_api_hostname</title>
<polygon fill="none" stroke="black" points="255.83,-396 96.97,-396 96.97,-360 261.83,-360 261.83,-390 255.83,-396"/>
<polyline fill="none" stroke="black" points="255.83,-396 255.83,-390 "/>
<polyline fill="none" stroke="black" points="261.83,-390 255.83,-390 "/>
<text text-anchor="middle" x="179.4" y="-373.8" font-family="Times,serif" font-size="14.00">output.todo_api_hostname</text>
</g>
<!-- [root] output.todo_api_hostname&#45;&gt;[root] ns1_record.todo&#45;api -->
<g id="edge39" class="edge">
<title>[root] output.todo_api_hostname&#45;&gt;[root] ns1_record.todo&#45;api</title>
<path fill="none" stroke="black" d="M154.45,-359.88C141.36,-350.89 125.14,-339.76 110.97,-330.03"/>
<polygon fill="black" stroke="black" points="112.68,-326.96 102.45,-324.19 108.71,-332.73 112.68,-326.96"/>
</g>
<!-- [root] output.todo_ips -->
<g id="node18" class="node">
<title>[root] output.todo_ips</title>
<polygon fill="none" stroke="black" points="936.91,-396 839.89,-396 839.89,-360 942.91,-360 942.91,-390 936.91,-396"/>
<polyline fill="none" stroke="black" points="936.91,-396 936.91,-390 "/>
<polyline fill="none" stroke="black" points="942.91,-390 936.91,-390 "/>
<text text-anchor="middle" x="891.4" y="-373.8" font-family="Times,serif" font-size="14.00">output.todo_ips</text>
</g>
<!-- [root] output.todo_ips&#45;&gt;[root] aws_instance.todo -->
<g id="edge40" class="edge">
<title>[root] output.todo_ips&#45;&gt;[root] aws_instance.todo</title>
<path fill="none" stroke="black" d="M942.96,-361.7C945.81,-361.07 948.63,-360.5 951.4,-360 1146.24,-324.85 1199.3,-351.24 1395.4,-324 1400.77,-323.25 1406.31,-322.39 1411.87,-321.45"/>
<polygon fill="black" stroke="black" points="1412.63,-324.87 1421.87,-319.68 1411.41,-317.97 1412.63,-324.87"/>
</g>
<!-- [root] var.personal_ns1_apikey -->
<g id="node24" class="node">
<title>[root] var.personal_ns1_apikey</title>
<polygon fill="none" stroke="black" points="148.71,-180 0.1,-180 0.1,-144 154.71,-144 154.71,-174 148.71,-180"/>
<polyline fill="none" stroke="black" points="148.71,-180 148.71,-174 "/>
<polyline fill="none" stroke="black" points="154.71,-174 148.71,-174 "/>
<text text-anchor="middle" x="77.4" y="-157.8" font-family="Times,serif" font-size="14.00">var.personal_ns1_apikey</text>
</g>
<!-- [root] provider.ns1&#45;&gt;[root] var.personal_ns1_apikey -->
<g id="edge46" class="edge">
<title>[root] provider.ns1&#45;&gt;[root] var.personal_ns1_apikey</title>
<path fill="none" stroke="black" d="M77.4,-215.7C77.4,-207.98 77.4,-198.71 77.4,-190.11"/>
<polygon fill="black" stroke="black" points="80.9,-190.1 77.4,-180.1 73.9,-190.1 80.9,-190.1"/>
</g>
<!-- [root] var.aws_profile -->
<g id="node23" class="node">
<title>[root] var.aws_profile</title>
<polygon fill="none" stroke="black" points="451.34,-396 355.47,-396 355.47,-360 457.34,-360 457.34,-390 451.34,-396"/>
<polyline fill="none" stroke="black" points="451.34,-396 451.34,-390 "/>
<polyline fill="none" stroke="black" points="457.34,-390 451.34,-390 "/>
<text text-anchor="middle" x="406.4" y="-373.8" font-family="Times,serif" font-size="14.00">var.aws_profile</text>
</g>
<!-- [root] var.ssh_private_key_path -->
<g id="node25" class="node">
<title>[root] var.ssh_private_key_path</title>
<polygon fill="none" stroke="black" points="627.6,-396 475.21,-396 475.21,-360 633.6,-360 633.6,-390 627.6,-396"/>
<polyline fill="none" stroke="black" points="627.6,-396 627.6,-390 "/>
<polyline fill="none" stroke="black" points="633.6,-390 627.6,-390 "/>
<text text-anchor="middle" x="554.4" y="-373.8" font-family="Times,serif" font-size="14.00">var.ssh_private_key_path</text>
</g>
<!-- [root] meta.count&#45;boundary (EachMode fixup) -->
<g id="node29" class="node">
<title>[root] meta.count&#45;boundary (EachMode fixup)</title>
<ellipse fill="none" stroke="black" cx="661.4" cy="-450" rx="174.79" ry="18"/>
<text text-anchor="middle" x="661.4" y="-445.8" font-family="Times,serif" font-size="14.00">[root] meta.count&#45;boundary (EachMode fixup)</text>
</g>
<!-- [root] meta.count&#45;boundary (EachMode fixup)&#45;&gt;[root] aws_lb_listener.todo -->
<g id="edge24" class="edge">
<title>[root] meta.count&#45;boundary (EachMode fixup)&#45;&gt;[root] aws_lb_listener.todo</title>
<path fill="none" stroke="black" d="M684.16,-432.05C696.19,-423.09 711.15,-411.96 724.24,-402.2"/>
<polygon fill="black" stroke="black" points="726.6,-404.81 732.53,-396.03 722.42,-399.2 726.6,-404.81"/>
</g>
<!-- [root] meta.count&#45;boundary (EachMode fixup)&#45;&gt;[root] aws_lb_target_group_attachment.todo_instance -->
<g id="edge25" class="edge">
<title>[root] meta.count&#45;boundary (EachMode fixup)&#45;&gt;[root] aws_lb_target_group_attachment.todo_instance</title>
<path fill="none" stroke="black" d="M778.93,-436.66C876.99,-426.31 1020.73,-411.02 1155.58,-396.2"/>
<polygon fill="black" stroke="black" points="1156.13,-399.66 1165.68,-395.09 1155.36,-392.7 1156.13,-399.66"/>
</g>
<!-- [root] meta.count&#45;boundary (EachMode fixup)&#45;&gt;[root] aws_s3_bucket_policy.lb_logs -->
<g id="edge26" class="edge">
<title>[root] meta.count&#45;boundary (EachMode fixup)&#45;&gt;[root] aws_s3_bucket_policy.lb_logs</title>
<path fill="none" stroke="black" d="M744.75,-434.15C804.74,-423.47 886.08,-408.98 950.33,-397.54"/>
<polygon fill="black" stroke="black" points="951.26,-400.93 960.49,-395.73 950.04,-394.03 951.26,-400.93"/>
</g>
<!-- [root] meta.count&#45;boundary (EachMode fixup)&#45;&gt;[root] output.bucket_lb_logs_hostname -->
<g id="edge27" class="edge">
<title>[root] meta.count&#45;boundary (EachMode fixup)&#45;&gt;[root] output.bucket_lb_logs_hostname</title>
<path fill="none" stroke="black" d="M506.92,-441.49C438.15,-434.58 367.84,-421.35 346.4,-396 336.07,-383.78 338.23,-373.76 346.4,-360 363.46,-331.27 388.93,-347.79 412.4,-324 429.85,-306.31 442.42,-280.81 450.14,-261.64"/>
<polygon fill="black" stroke="black" points="453.43,-262.85 453.74,-252.26 446.89,-260.34 453.43,-262.85"/>
</g>
<!-- [root] meta.count&#45;boundary (EachMode fixup)&#45;&gt;[root] output.bucket_lb_logs_region_hostname -->
<g id="edge28" class="edge">
<title>[root] meta.count&#45;boundary (EachMode fixup)&#45;&gt;[root] output.bucket_lb_logs_region_hostname</title>
<path fill="none" stroke="black" d="M509.59,-441.09C430.27,-434.05 343.55,-420.8 313.4,-396 295.02,-380.88 287.2,-354.35 283.87,-334.18"/>
<polygon fill="black" stroke="black" points="287.3,-333.45 282.47,-324.02 280.36,-334.4 287.3,-333.45"/>
</g>
<!-- [root] meta.count&#45;boundary (EachMode fixup)&#45;&gt;[root] output.lb_todo_hostname -->
<g id="edge29" class="edge">
<title>[root] meta.count&#45;boundary (EachMode fixup)&#45;&gt;[root] output.lb_todo_hostname</title>
<path fill="none" stroke="black" d="M659.83,-431.87C657.62,-407.67 653.55,-363.21 650.91,-334.39"/>
<polygon fill="black" stroke="black" points="654.37,-333.83 649.98,-324.19 647.4,-334.47 654.37,-333.83"/>
</g>
<!-- [root] meta.count&#45;boundary (EachMode fixup)&#45;&gt;[root] output.todo_api_hostname -->
<g id="edge30" class="edge">
<title>[root] meta.count&#45;boundary (EachMode fixup)&#45;&gt;[root] output.todo_api_hostname</title>
<path fill="none" stroke="black" d="M555.98,-435.65C478.29,-425.53 370.12,-410.88 275.4,-396 274.29,-395.83 273.18,-395.65 272.06,-395.47"/>
<polygon fill="black" stroke="black" points="272.28,-391.96 261.85,-393.81 271.16,-398.87 272.28,-391.96"/>
</g>
<!-- [root] meta.count&#45;boundary (EachMode fixup)&#45;&gt;[root] output.todo_ips -->
<g id="edge31" class="edge">
<title>[root] meta.count&#45;boundary (EachMode fixup)&#45;&gt;[root] output.todo_ips</title>
<path fill="none" stroke="black" d="M714.75,-432.76C749.07,-422.32 793.81,-408.7 829.67,-397.79"/>
<polygon fill="black" stroke="black" points="830.99,-401.05 839.53,-394.79 828.95,-394.35 830.99,-401.05"/>
</g>
<!-- [root] meta.count&#45;boundary (EachMode fixup)&#45;&gt;[root] var.aws_profile -->
<g id="edge32" class="edge">
<title>[root] meta.count&#45;boundary (EachMode fixup)&#45;&gt;[root] var.aws_profile</title>
<path fill="none" stroke="black" d="M602.05,-433.04C565.73,-423.24 518.06,-410.3 467.3,-396.24"/>
<polygon fill="black" stroke="black" points="468.03,-392.81 457.45,-393.51 466.15,-399.55 468.03,-392.81"/>
</g>
<!-- [root] meta.count&#45;boundary (EachMode fixup)&#45;&gt;[root] var.ssh_private_key_path -->
<g id="edge33" class="edge">
<title>[root] meta.count&#45;boundary (EachMode fixup)&#45;&gt;[root] var.ssh_private_key_path</title>
<path fill="none" stroke="black" d="M635.5,-432.05C621.54,-422.92 604.13,-411.53 589.02,-401.65"/>
<polygon fill="black" stroke="black" points="590.72,-398.58 580.44,-396.03 586.89,-404.44 590.72,-398.58"/>
</g>
<!-- [root] provider.aws (close) -->
<g id="node30" class="node">
<title>[root] provider.aws (close)</title>
<ellipse fill="none" stroke="black" cx="1133.4" cy="-450" rx="104.33" ry="18"/>
<text text-anchor="middle" x="1133.4" y="-445.8" font-family="Times,serif" font-size="14.00">[root] provider.aws (close)</text>
</g>
<!-- [root] provider.aws (close)&#45;&gt;[root] aws_lb_listener.todo -->
<g id="edge41" class="edge">
<title>[root] provider.aws (close)&#45;&gt;[root] aws_lb_listener.todo</title>
<path fill="none" stroke="black" d="M1060.05,-437.22C1000.91,-427.48 915.36,-412.85 831.2,-396.11"/>
<polygon fill="black" stroke="black" points="831.7,-392.64 821.21,-394.11 830.33,-399.5 831.7,-392.64"/>
</g>
<!-- [root] provider.aws (close)&#45;&gt;[root] aws_lb_target_group_attachment.todo_instance -->
<g id="edge42" class="edge">
<title>[root] provider.aws (close)&#45;&gt;[root] aws_lb_target_group_attachment.todo_instance</title>
<path fill="none" stroke="black" d="M1172.45,-433.29C1196.99,-423.42 1228.93,-410.57 1255.58,-399.85"/>
<polygon fill="black" stroke="black" points="1257.17,-402.98 1265.14,-396 1254.55,-396.49 1257.17,-402.98"/>
</g>
<!-- [root] provider.aws (close)&#45;&gt;[root] aws_s3_bucket_policy.lb_logs -->
<g id="edge43" class="edge">
<title>[root] provider.aws (close)&#45;&gt;[root] aws_s3_bucket_policy.lb_logs</title>
<path fill="none" stroke="black" d="M1114.28,-432.05C1104.36,-423.26 1092.07,-412.38 1081.22,-402.76"/>
<polygon fill="black" stroke="black" points="1083.43,-400.04 1073.62,-396.03 1078.79,-405.28 1083.43,-400.04"/>
</g>
<!-- [root] provider.external (close) -->
<g id="node31" class="node">
<title>[root] provider.external (close)</title>
<ellipse fill="none" stroke="black" cx="1929.4" cy="-306" rx="118.78" ry="18"/>
<text text-anchor="middle" x="1929.4" y="-301.8" font-family="Times,serif" font-size="14.00">[root] provider.external (close)</text>
</g>
<!-- [root] provider.external (close)&#45;&gt;[root] data.external.public_ip -->
<g id="edge44" class="edge">
<title>[root] provider.external (close)&#45;&gt;[root] data.external.public_ip</title>
<path fill="none" stroke="black" d="M1931.12,-287.76C1932.09,-267.43 1930.21,-234.14 1910.4,-216 1860.88,-170.67 1671.95,-162.73 1561.02,-162.12"/>
<polygon fill="black" stroke="black" points="1560.88,-158.62 1550.86,-162.08 1560.85,-165.62 1560.88,-158.62"/>
</g>
<!-- [root] provider.ns1 (close) -->
<g id="node32" class="node">
<title>[root] provider.ns1 (close)</title>
<ellipse fill="none" stroke="black" cx="218.4" cy="-450" rx="102.89" ry="18"/>
<text text-anchor="middle" x="218.4" y="-445.8" font-family="Times,serif" font-size="14.00">[root] provider.ns1 (close)</text>
</g>
<!-- [root] provider.ns1 (close)&#45;&gt;[root] ns1_record.todo&#45;api -->
<g id="edge45" class="edge">
<title>[root] provider.ns1 (close)&#45;&gt;[root] ns1_record.todo&#45;api</title>
<path fill="none" stroke="black" d="M151.29,-436.31C127.92,-428.53 103.74,-416.03 88.4,-396 75.13,-378.66 73.1,-353.61 73.97,-334.5"/>
<polygon fill="black" stroke="black" points="77.48,-334.54 74.74,-324.31 70.5,-334.02 77.48,-334.54"/>
</g>
<!-- [root] provider.terraform (close) -->
<g id="node33" class="node">
<title>[root] provider.terraform (close)</title>
<ellipse fill="none" stroke="black" cx="1262.4" cy="-306" rx="123.6" ry="18"/>
<text text-anchor="middle" x="1262.4" y="-301.8" font-family="Times,serif" font-size="14.00">[root] provider.terraform (close)</text>
</g>
<!-- [root] provider.terraform (close)&#45;&gt;[root] data.terraform_remote_state.training_account -->
<g id="edge47" class="edge">
<title>[root] provider.terraform (close)&#45;&gt;[root] data.terraform_remote_state.training_account</title>
<path fill="none" stroke="black" d="M1259.04,-287.85C1251.76,-250.75 1234.5,-162.81 1225.72,-118.1"/>
<polygon fill="black" stroke="black" points="1229.14,-117.37 1223.78,-108.23 1222.28,-118.72 1229.14,-117.37"/>
</g>
<!-- [root] provisioner.file (close) -->
<g id="node34" class="node">
<title>[root] provisioner.file (close)</title>
<ellipse fill="none" stroke="black" cx="1789.4" cy="-450" rx="112.06" ry="18"/>
<text text-anchor="middle" x="1789.4" y="-445.8" font-family="Times,serif" font-size="14.00">[root] provisioner.file (close)</text>
</g>
<!-- [root] provisioner.file (close)&#45;&gt;[root] aws_instance.todo -->
<g id="edge48" class="edge">
<title>[root] provisioner.file (close)&#45;&gt;[root] aws_instance.todo</title>
<path fill="none" stroke="black" d="M1754.37,-432.85C1698.58,-407.13 1589.53,-356.85 1527.48,-328.25"/>
<polygon fill="black" stroke="black" points="1528.86,-325.03 1518.31,-324.02 1525.93,-331.38 1528.86,-325.03"/>
</g>
<!-- [root] provisioner.remote&#45;exec (close) -->
<g id="node35" class="node">
<title>[root] provisioner.remote&#45;exec (close)</title>
<ellipse fill="none" stroke="black" cx="1515.4" cy="-450" rx="144.35" ry="18"/>
<text text-anchor="middle" x="1515.4" y="-445.8" font-family="Times,serif" font-size="14.00">[root] provisioner.remote&#45;exec (close)</text>
</g>
<!-- [root] provisioner.remote&#45;exec (close)&#45;&gt;[root] aws_instance.todo -->
<g id="edge49" class="edge">
<title>[root] provisioner.remote&#45;exec (close)&#45;&gt;[root] aws_instance.todo</title>
<path fill="none" stroke="black" d="M1511.3,-431.87C1505.48,-407.56 1494.77,-362.82 1487.87,-334.01"/>
<polygon fill="black" stroke="black" points="1491.25,-333.1 1485.52,-324.19 1484.44,-334.73 1491.25,-333.1"/>
</g>
<!-- [root] root -->
<g id="node36" class="node">
<title>[root] root</title>
<ellipse fill="none" stroke="black" cx="1343.4" cy="-522" rx="46.9" ry="18"/>
<text text-anchor="middle" x="1343.4" y="-517.8" font-family="Times,serif" font-size="14.00">[root] root</text>
</g>
<!-- [root] root&#45;&gt;[root] meta.count&#45;boundary (EachMode fixup) -->
<g id="edge50" class="edge">
<title>[root] root&#45;&gt;[root] meta.count&#45;boundary (EachMode fixup)</title>
<path fill="none" stroke="black" d="M1298.92,-516.43C1197.41,-506.02 945.52,-480.16 790.48,-464.25"/>
<polygon fill="black" stroke="black" points="790.71,-460.75 780.41,-463.21 790,-467.72 790.71,-460.75"/>
</g>
<!-- [root] root&#45;&gt;[root] provider.aws (close) -->
<g id="edge51" class="edge">
<title>[root] root&#45;&gt;[root] provider.aws (close)</title>
<path fill="none" stroke="black" d="M1309.19,-509.6C1276.65,-498.75 1227.14,-482.24 1188.94,-469.51"/>
<polygon fill="black" stroke="black" points="1189.58,-466.04 1178.99,-466.2 1187.37,-472.68 1189.58,-466.04"/>
</g>
<!-- [root] root&#45;&gt;[root] provider.external (close) -->
<g id="edge52" class="edge">
<title>[root] root&#45;&gt;[root] provider.external (close)</title>
<path fill="none" stroke="black" d="M1389.98,-519.95C1518.91,-516.57 1873.43,-504.08 1910.4,-468 1945.81,-433.44 1941.55,-370.41 1935.4,-334.32"/>
<polygon fill="black" stroke="black" points="1938.76,-333.23 1933.47,-324.05 1931.88,-334.52 1938.76,-333.23"/>
</g>
<!-- [root] root&#45;&gt;[root] provider.ns1 (close) -->
<g id="edge53" class="edge">
<title>[root] root&#45;&gt;[root] provider.ns1 (close)</title>
<path fill="none" stroke="black" d="M1297.39,-518.26C1168.16,-510.53 790.83,-487.88 477.4,-468 426.5,-464.77 369.97,-461.07 322.75,-457.95"/>
<polygon fill="black" stroke="black" points="322.72,-454.44 312.51,-457.28 322.26,-461.43 322.72,-454.44"/>
</g>
<!-- [root] root&#45;&gt;[root] provider.terraform (close) -->
<g id="edge54" class="edge">
<title>[root] root&#45;&gt;[root] provider.terraform (close)</title>
<path fill="none" stroke="black" d="M1342.45,-503.81C1342.31,-484.15 1345.08,-452.11 1362.4,-432 1392.15,-397.48 1432.45,-433.45 1458.4,-396 1467.52,-382.85 1468.13,-372.7 1458.4,-360 1445.28,-342.86 1399.84,-329.99 1356.02,-321.22"/>
<polygon fill="black" stroke="black" points="1356.6,-317.77 1346.12,-319.31 1355.27,-324.64 1356.6,-317.77"/>
</g>
<!-- [root] root&#45;&gt;[root] provisioner.file (close) -->
<g id="edge55" class="edge">
<title>[root] root&#45;&gt;[root] provisioner.file (close)</title>
<path fill="none" stroke="black" d="M1385.76,-514.35C1458.11,-503 1606.89,-479.65 1702.21,-464.69"/>
<polygon fill="black" stroke="black" points="1702.78,-468.14 1712.12,-463.13 1701.7,-461.22 1702.78,-468.14"/>
</g>
<!-- [root] root&#45;&gt;[root] provisioner.remote&#45;exec (close) -->
<g id="edge56" class="edge">
<title>[root] root&#45;&gt;[root] provisioner.remote&#45;exec (close)</title>
<path fill="none" stroke="black" d="M1374.55,-508.32C1399.97,-497.98 1436.36,-483.17 1465.79,-471.19"/>
<polygon fill="black" stroke="black" points="1467.13,-474.42 1475.07,-467.41 1464.49,-467.94 1467.13,-474.42"/>
</g>
</g>
</svg>
